<svg width="56" height="56" viewBox="0 0 56 56" fill="none" xmlns="http://www.w3.org/2000/svg">
<ellipse opacity="0.4" cx="33.2785" cy="50.3376" rx="13.3289" ry="3.32455" fill="#0070CB"/>
<path d="M42.3586 28.0136C40.4221 24.5554 33.878 16.2467 33.878 16.2467C33.878 16.2467 26.0091 24.917 24.0867 28.6446C21.6151 33.4373 20.8002 39.133 20.7445 40.1313C20.637 42.0624 21.859 44.0136 24.4126 45.4878C29.3116 48.316 37.2549 48.316 42.1541 45.4878C44.7078 44.0135 45.93 42.0623 45.8222 40.1313C45.8222 38.4864 44.9666 32.6709 42.3586 28.0136Z" fill="url(#paint0_radial_1_5933)"/>
<path d="M35.809 26.1504C34.8589 26.2515 34.6474 25.9887 33.1634 25.4743C31.6794 24.96 31.2275 26.7346 31.8346 27.2885C32.4417 27.8424 34.0085 29.3503 35.0831 29.27C36.1578 29.1897 40.5013 26.5742 40.5849 25.9392C40.6685 25.3042 40.5169 24.2673 40.4537 23.7526C40.4536 23.7527 36.759 26.0493 35.809 26.1504Z" fill="white"/>
<path d="M33.6278 24.0055C31.972 23.4315 31.4677 25.4117 32.1452 26.0299C32.8226 26.6479 34.5709 28.3305 35.7698 28.2408C36.5789 28.1804 39.0493 26.8316 40.5988 25.7432L40.6704 24.696C40.6704 24.696 41.8327 22.6588 41.7622 22.0846C41.7622 22.0846 37.6397 24.6473 36.5796 24.76C35.5198 24.8727 35.2836 24.5795 33.6278 24.0055Z" fill="#0058A4" fill-opacity="0.7"/>
<path d="M36.5319 24.5276C35.4719 24.6404 35.2358 24.3473 33.5799 23.7732C31.9241 23.1992 31.4199 25.1795 32.0974 25.7975C32.7748 26.4156 34.523 28.0981 35.722 28.0086C36.9211 27.9189 41.7676 25.0006 41.8608 24.292C41.9541 23.5835 41.7849 22.4265 41.7145 21.8522C41.7145 21.8522 37.5919 24.4148 36.5319 24.5276Z" fill="white"/>
<path d="M42.1769 18.4752C42.1769 18.4752 38.0102 21.9012 36.859 22.1803C35.7079 22.4595 35.4049 22.1711 33.497 21.7811C31.589 21.3909 31.3231 23.646 32.1599 24.2278C32.9965 24.8097 36.0278 26.3635 36.4761 26.1333C39.2726 24.6664 40.9329 23.4708 41.825 22.5737C41.7609 21.5677 42.3385 19.0976 42.1769 18.4752Z" fill="#0058A4" fill-opacity="0.7"/>
<path d="M36.8181 21.9615C35.6668 22.2408 35.364 21.9524 33.4559 21.5623C31.548 21.1722 31.2822 23.4272 32.1188 24.009C32.9554 24.5909 35.9867 26.1447 36.4351 25.9146C41.1811 23.4249 42.6549 21.717 42.654 20.9228C42.6531 20.1286 42.2976 18.8788 42.1359 18.2565C42.1359 18.2565 37.9693 21.6823 36.8181 21.9615Z" fill="white"/>
<path d="M15.3923 15.2487C15.5366 16.4847 16.2492 17.4708 17 17.9583C17.8218 18.4924 18.9286 18.5483 20.1798 18.0106L15.5904 15.3504L15.3923 15.2487Z" fill="#131019"/>
<path d="M24.7944 5.13105C24.769 5.11322 24.7466 5.09058 24.7205 5.07396L24.5359 4.96655C23.7861 4.57214 22.5851 4.3955 21.5172 4.80292L24.0862 6.29589L26.113 7.47364C25.942 6.38416 25.4661 5.59633 24.7944 5.13105Z" fill="url(#paint1_linear_1_5933)"/>
<path d="M32.8002 10.3407L24.0829 6.30033L19.7345 3.77344C19.4425 3.88489 19.1427 4.02642 18.8365 4.2035C15.8975 5.89925 13.517 10.0245 13.517 13.4159C13.517 13.6793 13.5331 13.9291 13.561 14.168C13.561 14.168 16.956 16.0883 18.1505 16.8282C18.9501 17.3236 22.5933 19.1943 25.571 22.0823C28.5487 24.9701 30.1417 24.3125 31.8491 26.3234C31.9591 26.0833 33.3996 23.7993 32.667 22.6676C30.3846 19.1412 34.3772 20.8376 34.8226 20.2368C35.6578 19.1101 37.9806 11.6093 32.8002 10.3407Z" fill="white"/>
<path d="M18.4666 1.43998L18.4147 1.40662L18.4098 1.41668C17.4533 0.905026 16.1583 0.99001 14.7236 1.81732C11.7873 3.51296 9.40398 7.63815 9.40398 11.0319C9.40398 12.6812 9.97546 13.8417 10.8881 14.4157L10.8852 14.4234L10.9292 14.4464C10.9529 14.4623 10.9786 14.4747 11.0045 14.4906L17 17.9603L17.0032 17.9551C16.2525 17.4675 15.7382 16.5833 15.5937 15.3471C15.5657 15.1083 15.5498 14.8586 15.5498 14.5951C15.5498 11.2037 17.9302 7.07837 20.8692 5.38262C21.1755 5.20565 21.475 5.06412 21.7672 4.95277C22.835 4.54535 23.7885 4.57817 24.5383 4.97257L18.5027 1.45803L18.4666 1.43998Z" fill="url(#paint2_linear_1_5933)"/>
<path d="M35.1195 10.5686C32.467 10.8176 30.6432 11.8121 28.9206 12.4286C28.9206 12.4286 34.7647 13.4586 34.9677 13.6709C36.6553 16.0676 38.1259 16.3771 38.1259 16.3771C38.1259 16.3771 37.7473 16.5857 37.1901 17.3536C36.6328 18.1216 36.4842 18.5799 36.4842 18.5799C36.4842 18.5799 35.6891 18.7532 33.877 19.2671C32.065 19.7811 32.3016 21.6408 33.0138 21.8366C33.0138 21.8366 35.2198 22.8821 37.9111 22.1112C38.855 21.841 39.7577 21.1593 40.7017 20.381C41.4081 19.7987 41.9352 19.3131 42.3045 18.8842C41.8241 16.9443 42.651 16.3057 40.2681 13.6517C37.311 10.358 37.7722 10.3195 35.1195 10.5686Z" fill="#0058A4" fill-opacity="0.7"/>
<path d="M13.4746 13.2344L17.4277 15.5703L19.864 17.2101L20.8773 17.9648L21.9123 18.935L22.9903 19.819L23.8527 20.3795L24.8876 20.9617L26.2459 21.9966L27.7016 22.9452C28.009 23.1455 28.3424 23.3026 28.6925 23.412L28.962 23.4962C29.3482 23.6169 29.7505 23.6783 30.1551 23.6783H30.2562" stroke="#4D8AC0" stroke-width="0.2"/>
<path d="M35.0719 10.3361C32.4193 10.5852 29.8913 11.2494 28.1686 11.8659C28.1686 11.8659 34.7171 13.2262 34.9201 13.4385C36.6077 15.8353 38.0782 16.1448 38.0782 16.1448C38.0782 16.1448 37.6996 16.3534 37.1424 17.1213C36.5852 17.8892 36.4365 18.3476 36.4365 18.3476C36.4365 18.3476 35.6413 18.5209 33.8293 19.0348C32.0173 19.5487 32.2539 21.4085 32.9661 21.6042C32.9661 21.6042 35.1721 22.6497 37.8634 21.8789C38.8073 21.6085 39.71 20.9269 40.654 20.1486C44.2898 17.1515 43.1777 16.7132 40.2204 13.4194C37.2633 10.1257 37.7245 10.0871 35.0719 10.3361Z" fill="white"/>
<path d="M33.208 20.5671C32.5434 19.9982 30.2549 17.7312 30.2549 17.7312C27.8745 15.5769 26.1667 15.8638 24.286 16.8147C22.0108 17.9651 25.8189 20.6496 25.8189 20.6496C25.8189 20.6496 27.6154 22.6269 29.3725 24.4612C31.1295 26.2956 35.2253 29.1079 36.8504 26.7192C38.4753 24.3305 33.8725 21.1358 33.208 20.5671Z" fill="#0058A4" fill-opacity="0.7"/>
<path d="M32.9658 20.6779C32.3012 20.109 30.0128 17.842 30.0128 17.842C29.1381 16.8901 26.2146 15.3079 23.9395 16.4583C21.6643 17.6087 24.9519 21.4943 24.9519 21.4943C24.9519 21.4943 26.3836 22.9259 29.3506 24.7102C32.2138 26.785 35.0469 28.9977 36.672 26.6091C38.2971 24.2203 33.6304 21.2466 32.9658 20.6779Z" fill="white"/>
<path d="M22.6493 9.73142L22.1741 9.67635C21.5071 9.59907 20.9219 10.1204 20.9219 10.7918C20.9219 11.0452 21.0075 11.2911 21.165 11.4896L22.4616 13.1245C22.6046 13.3049 22.7777 13.4592 22.9732 13.5807L25.9622 15.4375C26.0119 15.4683 26.0581 15.5045 26.1 15.5453C26.5231 15.9572 27.2303 15.7935 27.4293 15.2376L27.5288 14.9598C27.6591 14.596 27.5682 14.1897 27.2954 13.9161L23.5681 10.1766C23.321 9.92865 22.9971 9.77172 22.6493 9.73142Z" fill="#8AA7BE" fill-opacity="0.5"/>
<path d="M34.7208 23.3344C33.7081 24.1135 32.7214 25.8359 32.7214 25.8359C32.7214 25.8359 33.6173 26.6973 34.552 26.9051C35.4869 27.1128 35.7985 26.5415 36.2261 25.6846C36.6535 24.8276 35.007 23.1142 34.7208 23.3344Z" fill="url(#paint3_linear_1_5933)"/>
<path d="M41.9004 7.60411C39.8318 7.62249 40.3036 5.92444 38.0698 5.92444C35.8361 5.92444 34.82 7.89669 32.5099 6.33044C30.1998 4.7643 29.5734 8.28803 27.5317 7.52886C26.7316 7.30617 25.0478 6.72627 24.6106 9.40399C24.082 12.9866 30.4957 16.2937 31.5141 19.3107C31.5141 19.3107 31.9689 19.7493 32.4919 20.2456C33.1521 18.9004 35.536 18.6473 36.4366 18.3479C36.4366 18.3479 36.6781 17.7409 37.1425 17.1216C37.3766 16.8094 38.0111 16.2483 38.0111 16.2483C39.2877 14.5551 41.0153 12.2869 41.9004 11.2246C43.4089 9.41438 43.4993 7.58574 41.9004 7.60411Z" fill="url(#paint4_linear_1_5933)"/>
<path d="M37.1924 35.8636V35.3921L36.6561 35.8636H31.8137L31.4469 36.9701V37.4416H32.985C33.472 37.4573 33.7987 37.6491 33.9683 38.02H31.7551L31.4407 38.7776V39.2491H34.0114C33.8511 39.7584 33.4997 40.0193 32.9542 40.0287H31.6041L31.6103 41.1541L34.2364 44.351H36.3848V43.8795L36.0026 43.7852L34.0638 41.3615C34.6494 41.1792 35.1026 40.9183 35.42 40.5757C35.7375 40.233 35.9409 39.7929 36.0303 39.2523H36.8718L37.1862 38.0232V37.5517L36.7424 38.0232H36.0427C35.9933 37.6805 35.8855 37.3693 35.7159 37.0959H36.8749L37.1924 35.8636Z" fill="#033F73"/>
<path d="M36.8777 36.6212H35.7187C35.8852 36.8947 35.9961 37.2059 36.0454 37.5485H37.189L36.8746 38.7776H36.0331C35.9437 39.3183 35.7434 39.7584 35.4228 40.101C35.1053 40.4436 34.6522 40.7046 34.0666 40.8869L36.3876 43.7914V43.8795H34.2392L31.6161 40.6857L31.61 39.5603H32.96C33.5056 39.5478 33.857 39.29 34.0173 38.7776H31.4466L31.761 37.5485H33.9741C33.8077 37.1807 33.4779 36.9858 32.9908 36.9701H31.4528L31.8196 35.3921H37.1982L36.8777 36.6212Z" fill="white"/>
<defs>
<radialGradient id="paint0_radial_1_5933" cx="0" cy="0" r="1" gradientUnits="userSpaceOnUse" gradientTransform="translate(36.3865 30.5644) rotate(133.898) scale(20.1174 22.192)">
<stop stop-color="#70B5F6"/>
<stop offset="0.864189" stop-color="#00427C"/>
</radialGradient>
<linearGradient id="paint1_linear_1_5933" x1="23.8151" y1="7.33029" x2="23.8151" y2="5.08983" gradientUnits="userSpaceOnUse">
<stop stop-color="#054A86"/>
<stop offset="1" stop-color="#002445"/>
</linearGradient>
<linearGradient id="paint2_linear_1_5933" x1="19.7024" y1="2.66638" x2="14.1939" y2="16.5147" gradientUnits="userSpaceOnUse">
<stop stop-color="#82C5FF"/>
<stop offset="1" stop-color="#175F9F"/>
</linearGradient>
<linearGradient id="paint3_linear_1_5933" x1="35.7241" y1="26.4581" x2="33.3052" y2="24.6757" gradientUnits="userSpaceOnUse">
<stop stop-color="#E9F5FF"/>
<stop offset="1" stop-color="#CEE9FF"/>
</linearGradient>
<linearGradient id="paint4_linear_1_5933" x1="27.4997" y1="29.4749" x2="42.8641" y2="6.16954" gradientUnits="userSpaceOnUse">
<stop stop-color="#074275"/>
<stop offset="1" stop-color="#5FADF6"/>
</linearGradient>
</defs>
</svg>
