<svg width="15" height="14" viewBox="0 0 15 14" fill="none" xmlns="http://www.w3.org/2000/svg">
<path fill-rule="evenodd" clip-rule="evenodd" d="M5.00105 6.41676C3.21772 6.41676 1.77205 7.83359 1.77205 9.58135C1.77205 11.3291 3.21772 12.7459 5.00105 12.7459C6.78438 12.7459 8.23005 11.3291 8.23005 9.58135C8.23005 7.83359 6.78438 6.41676 5.00105 6.41676ZM0.906545 9.58135C0.906545 7.36512 2.73972 5.56852 5.00105 5.56852C7.26238 5.56852 9.09555 7.36512 9.09555 9.58135C9.09555 11.7976 7.26238 13.5942 5.00105 13.5942C2.73972 13.5942 0.906545 11.7976 0.906545 9.58135Z" fill="#005DAC"/>
<path fill-rule="evenodd" clip-rule="evenodd" d="M6.71226 7.81202C6.71226 7.67458 6.60084 7.56316 6.4634 7.56316H3.53827C3.40083 7.56316 3.28941 7.67458 3.28941 7.81202C3.28941 7.94946 3.40083 8.06088 3.53827 8.06088H4.76588C5.18842 8.18795 5.33169 8.48392 5.37822 8.74769H3.71749C3.5663 8.74769 3.44374 8.87025 3.44374 9.02143C3.44374 9.17262 3.5663 9.29518 3.71749 9.29518H5.36055C5.32249 9.43553 5.24933 9.58355 5.11676 9.70193C4.85269 9.93586 4.39505 9.95904 3.80088 9.89932C3.6508 9.88595 3.52157 10.0042 3.52157 10.1548V10.2414C3.52157 10.3255 3.55315 10.4065 3.61006 10.4685L5.05202 12.0379C5.11022 12.1012 5.19231 12.1373 5.27833 12.1373C5.55377 12.1373 5.69013 11.8029 5.49322 11.6103L4.29455 10.4379C5.49853 10.4379 5.86595 9.91561 5.94035 9.29518H6.28306C6.43425 9.29518 6.55681 9.17262 6.55681 9.02143C6.55681 8.87025 6.43425 8.74769 6.28306 8.74769H5.93389C5.89352 8.48902 5.79149 8.25299 5.61688 8.06088H6.4634C6.60084 8.06088 6.71226 7.94946 6.71226 7.81202Z" fill="#005DAC"/>
<path fill-rule="evenodd" clip-rule="evenodd" d="M10.5702 0.388515C10.4761 0.336251 10.3655 0.32039 10.2601 0.344056L7.29607 1.00961C7.25142 0.821981 7.07967 0.682211 6.87462 0.682211H1.25737C1.02314 0.682211 0.833252 0.872096 0.833252 1.10633C0.833252 1.34057 1.02314 1.53045 1.25737 1.53045H6.44187V3.39541H1.25737C1.02314 3.39541 0.833252 3.58529 0.833252 3.81953C0.833252 4.05376 1.02314 4.24365 1.25737 4.24365H6.87462C7.01971 4.24365 7.14813 4.17367 7.22664 4.06627L8.31623 4.34805C8.32666 4.74395 8.43481 5.22669 8.64601 5.67465C8.86734 6.1441 9.22594 6.625 9.76379 6.90613C10.0071 7.03332 10.3096 6.9431 10.4394 6.70463C10.5691 6.46615 10.4771 6.16973 10.2337 6.04254C9.95046 5.89447 9.71767 5.61429 9.55257 5.26412C9.44904 5.04452 9.38162 4.81693 9.3457 4.61428L9.58854 4.67708C10.2545 4.84929 10.916 4.38541 10.9646 3.71212C10.9651 3.705 10.9655 3.6979 10.9659 3.69084L12.1657 4.10812V13.1673C12.1657 13.4431 12.3893 13.6667 12.665 13.6667C12.9408 13.6667 13.1644 13.4431 13.1644 13.1673V4.27956C13.5081 4.21483 13.8193 4.00795 14.0037 3.6916C14.3428 3.11015 14.1353 2.36939 13.5408 2.0391L10.5702 0.388515ZM7.30737 3.20987L9.80936 3.85691C9.95005 3.89329 10.0898 3.79583 10.1011 3.65394C10.1008 3.65126 10.0982 3.63237 10.076 3.59389C10.0479 3.54506 10.0018 3.48866 9.94225 3.43037C9.88424 3.37358 9.82355 3.32477 9.77637 3.28974C9.75319 3.27252 9.73427 3.25938 9.72191 3.25102L9.70884 3.24232L9.70782 3.24165C9.52271 3.12542 9.45574 2.89152 9.5524 2.69798C9.64908 2.50438 9.87855 2.41264 10.0858 2.48472L12.7858 3.42371C12.7899 3.42515 12.7941 3.42666 12.7982 3.42822C12.9684 3.49323 13.1616 3.42625 13.2523 3.27076C13.3536 3.09702 13.2916 2.87569 13.114 2.777L10.2896 1.20766L7.30737 1.87729V3.20987Z" fill="#005DAC"/>
</svg>
