<svg width="32" height="32" viewBox="0 0 32 32" fill="none" xmlns="http://www.w3.org/2000/svg">
<path d="M22.5822 2.43416L24.2032 3.32551C24.3757 3.42034 24.4563 3.34492 24.4563 3.27501L23.3973 1.79173C23.3973 1.79173 24.491 1.20828 24.5493 1.15887C24.6292 1.09105 24.753 1.08745 24.8922 1.16402L26.7697 2.19637C27.0105 2.32867 27.2056 2.65063 27.2056 2.9153V4.69801C27.2056 4.88767 27.3145 5.03633 27.3781 5.07129C27.4417 5.10625 29.0798 6.00697 29.0798 6.00697C29.3205 6.13927 29.5156 6.46117 29.5156 6.7259V8.79059C29.5156 8.92289 29.4669 9.01596 29.388 9.05933C29.3091 9.10264 28.1892 9.71256 28.1892 9.71256L27.4587 8.13893C27.2862 8.0441 27.2056 8.11958 27.2056 8.18943V10.0608C27.2056 10.1932 27.1568 10.2862 27.0779 10.3295C26.9991 10.3729 25.8374 10.9995 25.8374 10.9995L24.8922 9.26821C24.6515 9.13577 24.4564 8.81394 24.4564 8.5492V6.76656C24.4564 6.57684 24.3475 6.42824 24.2839 6.39328L22.5823 5.4576C22.3415 5.32523 22.1464 5.00334 22.1464 4.7386L21.1001 3.05168C21.1001 3.05168 22.1838 2.47244 22.246 2.42377C22.3258 2.36112 22.4468 2.35976 22.5822 2.43416Z" fill="url(#paint0_linear_1_5127)"/>
<path d="M21.4113 3.07245L23.0323 3.9638C23.2048 4.05863 23.2855 3.98315 23.2855 3.9133V2.04194C23.2855 1.77713 23.4806 1.66988 23.7214 1.80225L25.5989 2.83459C25.8396 2.96696 26.0347 3.28879 26.0347 3.55353V5.33623C26.0347 5.52596 26.1436 5.67456 26.2072 5.70951C26.2707 5.74447 27.9088 6.64519 27.9088 6.64519C28.1495 6.7775 28.3447 7.09939 28.3447 7.36413V9.42881C28.3447 9.69355 28.1495 9.80087 27.9088 9.6685L26.2878 8.77722C26.1153 8.68239 26.0346 8.75787 26.0346 8.82772V10.699C26.0346 10.9638 25.8396 11.0711 25.5988 10.9387L23.7213 9.90636C23.4805 9.77399 23.2855 9.45217 23.2855 9.18743V7.40472C23.2855 7.21499 23.1765 7.0664 23.1129 7.03144L21.4113 6.09576C21.1705 5.96346 20.9754 5.64157 20.9754 5.37683V3.31207C20.9755 3.0474 21.1706 2.94008 21.4113 3.07245Z" fill="url(#paint1_linear_1_5127)"/>
<path d="M29.244 24.1472C29.8978 23.8819 30.0286 22.7747 29.5362 21.6741C29.0439 20.5736 28.1147 19.8964 27.461 20.1617C26.8072 20.427 26.6764 21.5343 27.1688 22.6348C27.6611 23.7354 28.5903 24.4125 29.244 24.1472Z" fill="url(#paint2_linear_1_5127)"/>
<path d="M28.4664 23.2538C28.7788 23.127 28.8414 22.5979 28.6061 22.072C28.3708 21.5461 27.9268 21.2225 27.6144 21.3493C27.3019 21.4761 27.2394 22.0052 27.4747 22.5311C27.71 23.057 28.154 23.3806 28.4664 23.2538Z" fill="url(#paint3_linear_1_5127)"/>
<path d="M28.5151 22.4009C28.5151 22.6607 28.3493 22.7801 28.1446 22.6676C27.9401 22.5551 27.7742 22.2533 27.7742 21.9935C27.7742 21.7337 27.9401 21.6143 28.1446 21.7268C28.3492 21.8393 28.5151 22.1411 28.5151 22.4009Z" fill="#D6D0EA"/>
<path d="M18.8844 27.818C18.541 27.818 18.2628 27.5529 18.2628 27.2259V25.6855C18.2628 25.3097 18.475 24.9596 18.8166 24.7717L27.4209 20.0406C27.6702 19.9035 27.9801 19.9034 28.2296 20.0406C28.4791 20.1778 28.634 20.4334 28.634 20.7077V22.2067C28.634 22.5337 28.3558 22.7987 28.0124 22.7987C27.669 22.7987 27.3908 22.5337 27.3908 22.2067V21.4244L19.5059 25.7599V27.2259C19.506 27.5529 19.2277 27.818 18.8844 27.818Z" fill="url(#paint4_linear_1_5127)"/>
<path d="M19.3081 29.6162C19.9618 29.3509 20.0926 28.2437 19.6003 27.1431C19.1079 26.0426 18.1788 25.3654 17.525 25.6307C16.8712 25.896 16.7404 27.0033 17.2328 28.1038C17.7252 29.2044 18.6543 29.8815 19.3081 29.6162Z" fill="url(#paint5_linear_1_5127)"/>
<path d="M18.7995 28.1644C18.7995 28.6609 18.4826 28.8891 18.0916 28.6742C17.7006 28.4591 17.3836 27.8824 17.3836 27.3859C17.3836 26.8894 17.7005 26.6612 18.0916 26.8762C18.4826 27.0911 18.7995 27.6679 18.7995 28.1644Z" fill="url(#paint6_linear_1_5127)"/>
<path d="M18.5768 27.8653C18.5768 28.1251 18.411 28.2445 18.2064 28.132C18.0017 28.0196 17.8359 27.7177 17.8359 27.4579C17.8359 27.1981 18.0017 27.0787 18.2064 27.1912C18.4109 27.3037 18.5768 27.6055 18.5768 27.8653Z" fill="url(#paint7_linear_1_5127)"/>
<path d="M25.7835 16.8576C25.5547 16.8576 25.3691 16.6809 25.3691 16.4629V13.0584C25.3691 12.7585 25.1997 12.479 24.9271 12.3291L21.3935 10.3862C21.3689 10.3726 21.3439 10.3726 21.3192 10.3862C21.2945 10.3997 21.282 10.4204 21.282 10.4475V13.7598C21.282 13.9778 21.0965 14.1545 20.8676 14.1545C20.6387 14.1545 20.4532 13.9778 20.4532 13.7598V10.4475C20.4532 10.1365 20.622 9.85807 20.9047 9.70254C21.1874 9.54706 21.5251 9.54706 21.8079 9.70259L25.3414 11.6455C25.8698 11.936 26.1979 12.4775 26.1979 13.0585V16.463C26.1979 16.6809 26.0124 16.8576 25.7835 16.8576Z" fill="url(#paint8_linear_1_5127)"/>
<path d="M15.0769 14.8714C15.0769 15.9103 14.4136 16.3879 13.5955 15.938C12.7773 15.4881 12.114 14.2812 12.114 13.2422C12.114 12.2032 12.7773 11.7256 13.5955 12.1755C14.4137 12.6254 15.0769 13.8323 15.0769 14.8714Z" fill="#594A8D"/>
<path d="M13.9891 14.5785C13.9891 15.075 13.6721 15.3032 13.2811 15.0881C12.8902 14.8731 12.5732 14.2964 12.5732 13.7999C12.5732 13.3034 12.8902 13.0752 13.2811 13.2902C13.6721 13.5052 13.9891 14.0819 13.9891 14.5785Z" fill="#C4B9EA"/>
<path d="M13.6182 14.5679C13.7817 14.5016 13.8144 14.2247 13.6913 13.9495C13.5682 13.6743 13.3358 13.5049 13.1723 13.5713C13.0088 13.6376 12.9761 13.9145 13.0992 14.1897C13.2224 14.4649 13.4547 14.6343 13.6182 14.5679Z" fill="#D6D0EA"/>
<path d="M4.12552 19.7021C3.78221 19.7021 3.50389 19.4371 3.50389 19.1101V17.5696C3.50389 17.1939 3.71611 16.8438 4.05773 16.6559L12.662 11.9248C12.9114 11.7876 13.2213 11.7876 13.4708 11.9248C13.7202 12.0619 13.8752 12.3175 13.8752 12.5919V14.0909C13.8752 14.4179 13.5969 14.6829 13.2536 14.6829C12.9103 14.6829 12.632 14.4179 12.632 14.0909V13.3085L4.74716 17.6441V19.11C4.74716 19.437 4.46883 19.7021 4.12552 19.7021Z" fill="url(#paint9_linear_1_5127)"/>
<path d="M4.54697 21.5004C5.20072 21.2351 5.33154 20.1278 4.83916 19.0273C4.34679 17.9267 3.41766 17.2496 2.7639 17.5149C2.11014 17.7802 1.97932 18.8874 2.4717 19.988C2.96408 21.0885 3.89321 21.7656 4.54697 21.5004Z" fill="url(#paint10_linear_1_5127)"/>
<path d="M4.04067 20.0394C4.04067 20.5359 3.72372 20.7641 3.33274 20.5491C2.94176 20.3341 2.62482 19.7574 2.62482 19.2608C2.62482 18.7643 2.94176 18.5361 3.33274 18.7512C3.72372 18.9662 4.04067 19.5429 4.04067 20.0394Z" fill="url(#paint11_linear_1_5127)"/>
<path d="M3.81343 19.7448C3.81343 20.0046 3.6476 20.124 3.44297 20.0116C3.23835 19.8991 3.07251 19.5973 3.07251 19.3374C3.07251 19.0776 3.23835 18.9582 3.44297 19.0707C3.6476 19.1832 3.81343 19.485 3.81343 19.7448Z" fill="url(#paint12_linear_1_5127)"/>
<path d="M27.7721 20.9065C27.7018 20.9065 27.6306 20.8894 27.5653 20.8535L11.9891 12.2888C11.7908 12.1798 11.7229 11.9385 11.8374 11.7497C11.9518 11.5609 12.2053 11.4962 12.4035 11.6052L27.9797 20.1699C28.1779 20.2789 28.2458 20.5203 28.1314 20.7091C28.0547 20.8357 27.9153 20.9065 27.7721 20.9065Z" fill="url(#paint13_linear_1_5127)"/>
<path d="M28.0469 18.2211L11.615 9.18585L3.47166 13.8564V14.6413C3.47166 14.9672 3.65476 15.2683 3.95158 15.4305L19.3435 23.841L28.0469 18.2211Z" fill="url(#paint14_linear_1_5127)"/>
<path d="M3.82065 14.3244L19.3021 22.8275L28.0464 18.2211L11.6145 9.18585L3.82065 14.3244Z" fill="url(#paint15_linear_1_5127)"/>
<path d="M13.5789 2.7229L12.8199 2.3128C12.7285 2.26788 12.6149 2.26343 12.5131 2.31938L4.08919 6.92559C3.70721 7.13567 3.47183 7.52383 3.47183 7.94395V13.9511C3.47183 14.0744 3.54564 14.1729 3.64638 14.2223L4.38275 14.6217C4.38298 14.6219 4.38314 14.6219 4.38337 14.622C4.47686 14.6733 4.59693 14.6806 4.70374 14.6219L13.1277 10.0157C13.5097 9.80565 13.745 9.41744 13.745 8.99732V2.99017C13.745 2.8703 13.6754 2.7736 13.5789 2.7229Z" fill="url(#paint16_linear_1_5127)"/>
<path d="M4.83996 7.3299L13.2639 2.72369C13.4777 2.60612 13.745 2.75308 13.745 2.98823V8.99538C13.745 9.4155 13.5097 9.80371 13.1276 10.0137L4.70369 14.6199C4.48984 14.7375 4.2226 14.5906 4.2226 14.3554V8.34826C4.2226 7.92814 4.45791 7.53993 4.83996 7.3299Z" fill="url(#paint17_linear_1_5127)"/>
<path d="M28.0034 16.2266C28.0034 15.4069 27.5443 14.6496 26.799 14.2398L17.1173 8.8986L14.568 4.24593C14.3101 3.77661 13.6714 3.64014 13.2277 3.9596L5.23247 8.35738C5.16681 8.3842 5.10307 8.41836 5.04314 8.46151C4.65357 8.742 4.53405 9.2496 4.76049 9.66169L7.65908 14.9502C7.90834 15.4038 8.28791 15.7806 8.75349 16.0365L18.5366 21.4335C18.7958 21.576 19.0842 21.5723 19.3219 21.4675L19.322 21.4674C19.3692 21.4466 19.4143 21.4218 19.4568 21.3933L27.5432 16.9483L27.5421 16.9476C27.8086 16.8154 28.0034 16.5536 28.0034 16.2266Z" fill="url(#paint18_linear_1_5127)"/>
<path d="M6.383 8.74784L8.93221 13.4006L17.1168 8.89866L14.5675 4.24593C14.3096 3.77661 13.6709 3.64014 13.2272 3.9596L5.23198 8.35738C5.65225 8.18573 6.15993 8.34196 6.383 8.74784Z" fill="url(#paint19_linear_1_5127)"/>
<path d="M18.5366 21.4316L8.75349 16.0346C8.28791 15.7786 7.90834 15.4018 7.65908 14.9482L4.76049 9.65973C4.53405 9.24764 4.65357 8.74009 5.04314 8.4596C5.48685 8.14014 6.12557 8.27661 6.38349 8.74593L8.9327 13.3987L18.6144 18.7399C19.3597 19.1497 19.8188 19.907 19.8188 20.7266C19.8189 21.3532 19.1065 21.7449 18.5366 21.4316Z" fill="url(#paint20_linear_1_5127)"/>
<path d="M28.497 13.1741L27.738 12.764C27.6466 12.7191 27.533 12.7146 27.4312 12.7706L19.0073 17.3767C18.6253 17.5868 18.39 17.975 18.39 18.3951V23.1448C18.39 23.2681 18.4638 23.3666 18.5645 23.416L19.3008 23.8154C19.3944 23.867 19.5148 23.8744 19.6219 23.8156L28.0458 19.2094C28.4278 18.9993 28.6631 18.6111 28.6631 18.191V13.4414C28.6631 13.3214 28.5934 13.2248 28.497 13.1741Z" fill="url(#paint21_linear_1_5127)"/>
<path d="M19.7558 17.7811L28.1798 13.1749C28.3936 13.0573 28.6608 13.2043 28.6608 13.4394V18.189C28.6608 18.6092 28.4255 18.9974 28.0434 19.2074L19.6195 23.8136C19.4057 23.9312 19.1384 23.7842 19.1384 23.5491V18.7994C19.1385 18.3793 19.3738 17.9911 19.7558 17.7811Z" fill="url(#paint22_linear_1_5127)"/>
<path d="M17.2776 21.5419C17.0488 21.5419 16.8632 21.3652 16.8632 21.1472V17.7426C16.8632 17.4427 16.6938 17.1633 16.4211 17.0133L12.8876 15.0704C12.8629 15.0569 12.838 15.0569 12.8132 15.0704C12.7885 15.084 12.7761 15.1046 12.7761 15.1317V18.4441C12.7761 18.662 12.5906 18.8387 12.3616 18.8387C12.1328 18.8387 11.9472 18.6621 11.9472 18.4441V15.1317C11.9472 14.8208 12.116 14.5423 12.3988 14.3868C12.6817 14.2314 13.0193 14.2313 13.302 14.3868L16.8355 16.3298C17.3638 16.6203 17.6921 17.1616 17.6921 17.7426V21.1472C17.692 21.3651 17.5065 21.5419 17.2776 21.5419Z" fill="url(#paint23_linear_1_5127)"/>
<path d="M19.8002 25.3121C19.7298 25.3121 19.6586 25.2951 19.5934 25.2592L4.01706 16.6944C3.81884 16.5854 3.75093 16.344 3.86539 16.1553C3.97979 15.9664 4.23332 15.9018 4.43148 16.0108L20.0078 24.5756C20.206 24.6846 20.2739 24.9259 20.1595 25.1147C20.0827 25.2413 19.9434 25.3121 19.8002 25.3121Z" fill="url(#paint24_linear_1_5127)"/>
<path d="M21.474 18.5654C21.474 18.5216 21.4978 18.4813 21.5361 18.4603L26.0828 15.9602C26.1628 15.9162 26.2606 15.9741 26.2606 16.0654V18.6861C26.2606 18.7299 26.2368 18.7702 26.1984 18.7913L21.6518 21.2913C21.5718 21.3353 21.474 21.2775 21.474 21.1862V18.5654Z" fill="url(#paint25_linear_1_5127)"/>
<path d="M16.8263 19.1274L13.0307 17.0164C12.8418 16.9125 12.6003 16.9741 12.4912 17.1541C12.3821 17.334 12.4468 17.564 12.6357 17.6678L16.8263 19.9985V19.1274H16.8263Z" fill="url(#paint26_linear_1_5127)"/>
<defs>
<linearGradient id="paint0_linear_1_5127" x1="27.3127" y1="12.1736" x2="26.5812" y2="5.29774" gradientUnits="userSpaceOnUse">
<stop stop-color="#D3E7FF"/>
<stop offset="1" stop-color="#BBDBFF"/>
</linearGradient>
<linearGradient id="paint1_linear_1_5127" x1="24.66" y1="10.5386" x2="24.66" y2="3.39909" gradientUnits="userSpaceOnUse">
<stop stop-color="#054A86"/>
<stop offset="1" stop-color="#0C6ECA"/>
</linearGradient>
<linearGradient id="paint2_linear_1_5127" x1="29.156" y1="23.9504" x2="27.8896" y2="20.8296" gradientUnits="userSpaceOnUse">
<stop stop-color="#002E56"/>
<stop offset="1" stop-color="#054581"/>
</linearGradient>
<linearGradient id="paint3_linear_1_5127" x1="27.6144" y1="21.3493" x2="28.3984" y2="23.2814" gradientUnits="userSpaceOnUse">
<stop stop-color="#DDEFFF"/>
<stop offset="1" stop-color="#EBF6FF"/>
</linearGradient>
<linearGradient id="paint4_linear_1_5127" x1="28.634" y1="20.0914" x2="18.2628" y2="27.6643" gradientUnits="userSpaceOnUse">
<stop stop-color="#DDEFFF"/>
<stop offset="1" stop-color="#CBD8E3"/>
</linearGradient>
<linearGradient id="paint5_linear_1_5127" x1="19.22" y1="29.4194" x2="17.9536" y2="26.2986" gradientUnits="userSpaceOnUse">
<stop stop-color="#002E56"/>
<stop offset="1" stop-color="#054581"/>
</linearGradient>
<linearGradient id="paint6_linear_1_5127" x1="18.0916" y1="26.7953" x2="18.0916" y2="28.7551" gradientUnits="userSpaceOnUse">
<stop stop-color="#DDEFFF"/>
<stop offset="1" stop-color="#EBF6FF"/>
</linearGradient>
<linearGradient id="paint7_linear_1_5127" x1="18.0299" y1="28.2961" x2="18.1188" y2="27.5863" gradientUnits="userSpaceOnUse">
<stop stop-color="#3376C3"/>
<stop offset="1" stop-color="#93BBE9"/>
</linearGradient>
<linearGradient id="paint8_linear_1_5127" x1="23.3255" y1="9.58594" x2="23.3255" y2="16.8576" gradientUnits="userSpaceOnUse">
<stop stop-color="#C0DBF2"/>
<stop offset="1" stop-color="#EBF6FF"/>
</linearGradient>
<linearGradient id="paint9_linear_1_5127" x1="8.68956" y1="11.8219" x2="8.68956" y2="19.7021" gradientUnits="userSpaceOnUse">
<stop stop-color="#DDEFFF"/>
<stop offset="1" stop-color="#EBF6FF"/>
</linearGradient>
<linearGradient id="paint10_linear_1_5127" x1="4.4589" y1="21.3035" x2="3.19251" y2="18.1828" gradientUnits="userSpaceOnUse">
<stop stop-color="#002E56"/>
<stop offset="1" stop-color="#054581"/>
</linearGradient>
<linearGradient id="paint11_linear_1_5127" x1="3.33274" y1="18.6702" x2="3.33274" y2="20.63" gradientUnits="userSpaceOnUse">
<stop stop-color="#DDEFFF"/>
<stop offset="1" stop-color="#EBF6FF"/>
</linearGradient>
<linearGradient id="paint12_linear_1_5127" x1="3.26646" y1="20.1756" x2="3.35537" y2="19.4659" gradientUnits="userSpaceOnUse">
<stop stop-color="#3376C3"/>
<stop offset="1" stop-color="#93BBE9"/>
</linearGradient>
<linearGradient id="paint13_linear_1_5127" x1="26.5914" y1="20.9065" x2="11.9123" y2="15.6216" gradientUnits="userSpaceOnUse">
<stop stop-color="#DDEFFF"/>
<stop offset="1" stop-color="#CBD8E3"/>
</linearGradient>
<linearGradient id="paint14_linear_1_5127" x1="15.7593" y1="23.1172" x2="15.7593" y2="11.8057" gradientUnits="userSpaceOnUse">
<stop stop-color="#054A86"/>
<stop offset="1" stop-color="#0C6ECA"/>
</linearGradient>
<linearGradient id="paint15_linear_1_5127" x1="15.9335" y1="22.1537" x2="15.9335" y2="11.6245" gradientUnits="userSpaceOnUse">
<stop stop-color="#002E56"/>
<stop offset="1" stop-color="#054581"/>
</linearGradient>
<linearGradient id="paint16_linear_1_5127" x1="8.60843" y1="14.0516" x2="8.60843" y2="4.49226" gradientUnits="userSpaceOnUse">
<stop stop-color="#054A86"/>
<stop offset="1" stop-color="#0C6ECA"/>
</linearGradient>
<linearGradient id="paint17_linear_1_5127" x1="6.71521" y1="16.0831" x2="7.66174" y2="7.77026" gradientUnits="userSpaceOnUse">
<stop stop-color="#3376C3"/>
<stop offset="1" stop-color="#93BBE9"/>
</linearGradient>
<linearGradient id="paint18_linear_1_5127" x1="5.07436" y1="22.043" x2="16.0569" y2="10.8288" gradientUnits="userSpaceOnUse">
<stop stop-color="#6AA4E7"/>
<stop offset="1" stop-color="#C2DFFF"/>
</linearGradient>
<linearGradient id="paint19_linear_1_5127" x1="6.31117" y1="20.0517" x2="7.70243" y2="7.64023" gradientUnits="userSpaceOnUse">
<stop stop-color="#3376C3"/>
<stop offset="1" stop-color="#B3D5FC"/>
</linearGradient>
<linearGradient id="paint20_linear_1_5127" x1="12.2327" y1="20.8872" x2="12.2327" y2="10.6557" gradientUnits="userSpaceOnUse">
<stop stop-color="#054A86"/>
<stop offset="1" stop-color="#0C6ECA"/>
</linearGradient>
<linearGradient id="paint21_linear_1_5127" x1="23.5266" y1="23.3074" x2="23.5266" y2="14.7186" gradientUnits="userSpaceOnUse">
<stop stop-color="#054A86"/>
<stop offset="1" stop-color="#0C6ECA"/>
</linearGradient>
<linearGradient id="paint22_linear_1_5127" x1="21.631" y1="25.1275" x2="22.3912" y2="17.6683" gradientUnits="userSpaceOnUse">
<stop stop-color="#3376C3"/>
<stop offset="1" stop-color="#93BBE9"/>
</linearGradient>
<linearGradient id="paint23_linear_1_5127" x1="14.8196" y1="14.2702" x2="14.8196" y2="21.5419" gradientUnits="userSpaceOnUse">
<stop stop-color="#DDEFFF"/>
<stop offset="1" stop-color="#EBF6FF"/>
</linearGradient>
<linearGradient id="paint24_linear_1_5127" x1="4.67652" y1="15.9578" x2="19.3483" y2="25.3121" gradientUnits="userSpaceOnUse">
<stop stop-color="#CAD7E2"/>
<stop offset="1" stop-color="#EBF6FF"/>
</linearGradient>
<linearGradient id="paint25_linear_1_5127" x1="23.8673" y1="15.8624" x2="23.8673" y2="21.3891" gradientUnits="userSpaceOnUse">
<stop stop-color="#F3F9FF"/>
<stop offset="1" stop-color="#EBF6FF"/>
</linearGradient>
<linearGradient id="paint26_linear_1_5127" x1="14.6323" y1="16.9659" x2="14.6323" y2="19.9985" gradientUnits="userSpaceOnUse">
<stop stop-color="#DDEFFF"/>
<stop offset="1" stop-color="#EBF6FF"/>
</linearGradient>
</defs>
</svg>
