<svg width="32" height="32" viewBox="0 0 32 32" fill="none" xmlns="http://www.w3.org/2000/svg">
<g clip-path="url(#clip0_1_5066)">
<path d="M27.329 25.3859C27.329 26.6329 26.5708 27.2061 25.6356 26.6661C24.7003 26.1262 23.9421 24.6776 23.9421 23.4305C23.9421 22.1835 24.7003 21.6103 25.6356 22.1503C26.5709 22.6903 27.329 24.1389 27.329 25.3859Z" fill="url(#paint0_linear_1_5066)"/>
<path d="M25.8642 25.9184C26.2897 25.7371 26.3748 24.9805 26.0544 24.2284C25.7339 23.4763 25.1292 23.0136 24.7037 23.1949C24.2783 23.3762 24.1931 24.1328 24.5136 24.8849C24.834 25.637 25.4387 26.0997 25.8642 25.9184Z" fill="#9EC6F3"/>
<path d="M19.2614 9.69162C16.8516 8.30037 14.8982 9.77718 14.8982 12.9901C14.8982 16.2031 16.8517 19.9356 19.2614 21.3268C21.6711 22.7181 23.6246 21.2412 23.6246 18.0283C23.6246 14.8154 21.6711 11.0829 19.2614 9.69162ZM19.2614 19.8056C17.4818 18.7782 16.0391 16.0217 16.0391 13.6489C16.0391 11.276 17.0538 10.9046 18.8334 11.9321C20.6131 12.9595 21.7318 14.8722 21.7318 17.2451C21.7317 19.6178 21.041 20.8331 19.2614 19.8056Z" fill="url(#paint1_linear_1_5066)"/>
<path d="M21.6231 17.0118L21.5585 16.6904L20.4018 16.4902L19.6872 15.7888L20.0393 15.1141L21.1053 14.9696L21.0003 14.6472L20.2283 14.7518L20.6411 13.9609L20.4448 13.7076L19.8748 14.7998L19.2163 14.889L18.9997 13.8112L19.3504 12.4713L19.1374 12.2623L18.8834 13.2326L18.6294 11.969L18.4163 11.9321L18.7671 13.6769L18.5504 14.5046L17.8919 13.655L17.3219 11.9046L17.1256 11.9313L17.5384 13.1988L16.7664 12.2028L16.6614 12.4039L17.7274 13.7793L18.0794 14.8606L17.3649 14.7369L16.2081 13.6014L16.1436 13.8482L16.9813 14.6705L16.1436 14.5255L16.2081 14.8469L17.3649 15.0471L18.0794 15.7485L17.7274 16.4232L16.6614 16.5677L16.7664 16.8901L17.5384 16.7854L17.1256 17.5764L17.3219 17.8297L17.8919 16.7374L18.5504 16.6482L18.767 17.7261L18.4163 19.0659L18.6293 19.2751L18.8833 18.3048L19.1373 19.5684L19.3504 19.6053L18.9996 17.8605L19.2163 17.0328L19.8748 17.8824L20.4447 19.6328L20.641 19.6061L20.2283 18.3386L21.0002 19.3346L21.1052 19.1334L20.0393 17.7581L19.6872 16.6768L20.4018 16.8005L21.5585 17.936L21.6231 17.6892L20.7854 16.8669L21.6231 17.0118ZM19.6858 15.162L19.4699 15.5755L19.3258 15.4341L19.2821 15.2167L19.6858 15.162ZM18.8833 14.2556L19.0161 14.9162L18.8833 14.9342L18.7506 14.7629L18.8833 14.2556ZM18.0809 14.2355L18.4844 14.7562L18.4408 14.9231L18.2967 14.8982L18.0809 14.2355ZM17.7485 15.1134L18.1865 15.1893L18.2575 15.4073L18.1865 15.5434L17.7485 15.1134ZM18.0809 16.3753L18.2968 15.9617L18.4409 16.1032L18.4846 16.3206L18.0809 16.3753ZM18.8833 17.2817L18.7505 16.6211L18.8833 16.6031L19.0161 16.7744L18.8833 17.2817ZM19.6858 17.3018L19.2822 16.7811L19.3259 16.6142L19.47 16.6391L19.6858 17.3018ZM19.5802 16.348L19.5092 16.1299L19.5802 15.9939L20.0182 16.4238L19.5802 16.348Z" fill="#9EC6F3"/>
<path d="M18.8833 11.4722C17.1037 10.4448 15.661 11.5354 15.661 13.9082C15.661 16.2811 17.1037 19.0375 18.8833 20.065C20.6629 21.0924 22.1056 20.0018 22.1056 17.6291C22.1056 15.2562 20.6629 12.4997 18.8833 11.4722ZM18.8833 19.224C17.4521 18.3977 16.2918 16.1807 16.2918 14.2724C16.2918 12.3641 17.452 11.4869 18.8833 12.3133C20.3146 13.1396 21.4749 15.3566 21.4749 17.2649C21.4749 19.1732 20.3146 20.0504 18.8833 19.224Z" fill="#1E3C5D"/>
<path d="M25.109 18.2351C24.817 18.2351 24.5803 17.9985 24.5803 17.7065V14.4458L16.9682 10.0509C16.7153 9.90496 16.6287 9.58159 16.7747 9.32871C16.9207 9.07577 17.2441 8.98921 17.4969 9.13521L25.1286 13.5414C25.4426 13.7227 25.6377 14.0606 25.6377 14.4231V17.7064C25.6377 17.9985 25.401 18.2351 25.109 18.2351Z" fill="#DFE7F0"/>
<path d="M23.6142 9.99438C23.6142 9.95613 23.5953 9.91788 23.5574 9.896L19.1101 7.32838C19.0193 7.27588 18.9073 7.27588 18.8164 7.32838L17.2894 8.21C17.2519 8.23163 17.2331 8.26931 17.2328 8.30713H17.2326V8.308V8.30881L17.2326 9.03694V9.039L17.2327 9.03906C17.2334 9.07663 17.2522 9.11388 17.2894 9.13538L21.7366 11.703C21.8275 11.7555 21.9395 11.7555 22.0304 11.703L23.5574 10.8214C23.5953 10.7995 23.6142 10.7613 23.6142 10.723V9.99438Z" fill="url(#paint2_linear_1_5066)"/>
<path d="M17.2894 8.20971L18.8164 7.32809C18.9073 7.27565 19.0193 7.27565 19.1101 7.32809L23.5574 9.89571C23.6331 9.9394 23.6331 10.0487 23.5574 10.0924L22.0304 10.974C21.9395 11.0265 21.8275 11.0265 21.7366 10.974L17.2894 8.4064C17.2136 8.36277 17.2136 8.25346 17.2894 8.20971Z" fill="url(#paint3_linear_1_5066)"/>
<path d="M15.6618 2.30082C15.5337 2.30082 15.4039 2.2682 15.2849 2.19951L13.9164 1.40945C13.5552 1.20088 13.4314 0.739008 13.6399 0.377758C13.8485 0.0165084 14.3104 -0.107179 14.6716 0.101321L16.0401 0.891383C16.4014 1.09995 16.5251 1.56182 16.3166 1.92307C16.1767 2.16538 15.9228 2.30082 15.6618 2.30082Z" fill="#085BA6"/>
<path d="M24.9043 22.3121C24.8146 22.3121 24.7238 22.2893 24.6404 22.2412L16.4249 17.498V2.7272C16.4249 2.64632 16.3814 2.57101 16.3113 2.53051L15.6668 2.15838C15.4139 2.01238 15.3273 1.68907 15.4733 1.4362C15.6193 1.18326 15.9426 1.09676 16.1954 1.2427L16.84 1.61482C17.2361 1.84357 17.4823 2.26976 17.4823 2.7272V16.8875L25.1691 21.3255C25.422 21.4715 25.5086 21.7948 25.3626 22.0477C25.2648 22.2173 25.0871 22.3121 24.9043 22.3121Z" fill="#DFE7F0"/>
<path d="M25.109 25.2013C24.817 25.2013 24.5803 24.9646 24.5803 24.6726V17.2245C24.5803 16.9325 24.817 16.6958 25.109 16.6958C25.401 16.6958 25.6377 16.9325 25.6377 17.2245V24.6726C25.6377 24.9646 25.401 25.2013 25.109 25.2013Z" fill="#DFE7F0"/>
<path d="M7.28413 7.1672C7.156 7.1672 7.02619 7.13458 6.90719 7.06589L5.53869 6.27583C5.1775 6.06726 5.05369 5.60539 5.26225 5.24414C5.47088 4.88295 5.93269 4.7592 6.29394 4.9677L7.66244 5.75776C8.02369 5.96633 8.14744 6.4282 7.93888 6.78945C7.799 7.0317 7.54513 7.1672 7.28413 7.1672Z" fill="#085BA6"/>
<path d="M21.4266 28.8211V28.8201L21.4264 28.8202C21.4259 28.7739 21.4029 28.7278 21.3571 28.7013L19.4884 27.6224C19.3771 27.5581 19.2401 27.5581 19.1289 27.6224L16.4423 29.1694C16.396 29.1962 16.3728 29.243 16.3728 29.2898V29.8564C16.3728 29.9032 16.396 29.95 16.4423 29.9767L18.3111 31.0557C18.4223 31.1199 18.5593 31.1199 18.6706 31.0557L21.3571 29.5086C21.4026 29.4824 21.4256 29.4367 21.4264 29.3908L21.4266 29.3908V29.3883V29.3882L21.4266 28.8223C21.4266 28.8219 21.4266 28.8215 21.4266 28.8211Z" fill="url(#paint4_linear_1_5066)"/>
<path d="M21.3569 28.7013L19.4881 27.6224C19.3769 27.5582 19.2399 27.5582 19.1286 27.6224L16.4421 29.1694C16.3494 29.2229 16.3494 29.3567 16.4421 29.4102L18.3108 30.4891C18.4221 30.5533 18.5591 30.5533 18.6703 30.4891L21.3569 28.942C21.4495 28.8885 21.4495 28.7548 21.3569 28.7013Z" fill="url(#paint5_linear_1_5066)"/>
<path d="M24.289 16.5572C24.289 16.4464 24.2341 16.3354 24.1244 16.2721L16.9212 12.1133L16.92 3.79431C16.92 3.65956 16.8421 3.55224 16.7364 3.49987L16.7365 3.49981L16.3297 3.26537C16.3282 3.26449 16.3267 3.26362 16.3251 3.26274L16.3232 3.26162L16.3232 3.26174C16.2279 3.20856 16.1066 3.20156 15.9986 3.26393L9.41181 7.06681C9.178 7.20181 9.03394 7.45131 9.03394 7.72131V15.6031V16.3921C9.03394 16.6014 9.14556 16.7947 9.32681 16.8994L9.957 17.2632L16.7822 21.2037C17.0161 21.3388 17.3043 21.3388 17.5382 21.2037L24.1244 17.4012C24.2341 17.3378 24.289 17.2269 24.289 17.116V16.5572Z" fill="url(#paint6_linear_1_5066)"/>
<path d="M9.463 16.4193L16.9211 12.1133L24.1243 16.2721C24.3439 16.3988 24.3439 16.7157 24.1243 16.8424L17.5381 20.645C17.3042 20.7801 17.016 20.7801 16.7821 20.645L9.463 16.4193Z" fill="url(#paint7_linear_1_5066)"/>
<path d="M9.83974 7.31226L16.4265 3.50938C16.6458 3.38276 16.92 3.54101 16.92 3.79432V12.1124L9.46187 16.4183V7.96676C9.46187 7.69676 9.60587 7.44726 9.83974 7.31226Z" fill="url(#paint8_linear_1_5066)"/>
<path d="M16.5266 27.1784C16.4369 27.1784 16.3461 27.1556 16.2628 27.1075L8.0472 22.3642V7.59356C8.0472 7.51268 8.0037 7.43731 7.93363 7.39687L7.28907 7.02474C7.0362 6.87881 6.94957 6.55543 7.09557 6.30256C7.24157 6.04962 7.56494 5.96306 7.81776 6.10906L8.46232 6.48118C8.85844 6.70993 9.10457 7.13612 9.10457 7.59356V21.7537L16.7914 26.1918C17.0443 26.3377 17.1309 26.6611 16.9849 26.914C16.8871 27.0836 16.7093 27.1784 16.5266 27.1784Z" fill="#DFE7F0"/>
<path d="M16.7313 30.0676C16.4393 30.0676 16.2026 29.8309 16.2026 29.5389V22.0908C16.2026 21.7988 16.4393 21.5621 16.7313 21.5621C17.0233 21.5621 17.26 21.7988 17.26 22.0908V29.5389C17.26 29.8309 17.0233 30.0676 16.7313 30.0676Z" fill="#DFE7F0"/>
<path d="M9.03419 15.628C6.62444 14.2367 4.67101 15.7135 4.67101 18.9265C4.67101 22.1394 6.62444 25.8719 9.03419 27.2631C11.4439 28.6544 13.3974 27.1776 13.3974 23.9646C13.3974 20.7516 11.4439 17.0192 9.03419 15.628ZM9.03419 25.7419C7.25457 24.7145 5.81194 21.958 5.81194 19.5851C5.81194 17.2123 6.82663 16.8409 8.60626 17.8683C10.3859 18.8958 11.5046 20.8085 11.5046 23.1813C11.5045 25.5541 10.8138 26.7694 9.03419 25.7419Z" fill="url(#paint9_linear_1_5066)"/>
<path d="M11.3959 22.9481L11.3313 22.6267L10.1746 22.4265L9.46001 21.7251L9.81207 21.0504L10.878 20.9059L10.773 20.5835L10.0011 20.6881L10.4138 19.8972L10.2175 19.6439L9.64757 20.7361L8.98907 20.8253L8.77245 19.7474L9.1232 18.4076L8.91013 18.1984L8.65613 19.1688L8.40213 17.9052L8.18907 17.8683L8.53982 19.6131L8.32313 20.4408L7.66463 19.5911L7.0947 17.8408L6.89838 17.8674L7.31113 19.135L6.5392 18.139L6.4342 18.3401L7.50013 19.7155L7.8522 20.7968L7.13763 20.6731L5.98088 19.5376L5.91632 19.7844L6.75401 20.6067L5.91632 20.4617L5.98088 20.7831L7.13763 20.9833L7.8522 21.6848L7.50013 22.3594L6.4342 22.5039L6.5392 22.8263L7.31113 22.7217L6.89838 23.5126L7.0947 23.7659L7.66463 22.6738L8.32313 22.5845L8.53976 23.6623L8.18901 25.0022L8.40207 25.2113L8.65607 24.2409L8.91007 25.5045L9.12313 25.5414L8.77238 23.7965L8.98907 22.9688L9.64751 23.8184L10.2174 25.5688L10.4138 25.5421L10.001 24.2745L10.7729 25.2705L10.8779 25.0694L9.81201 23.694L9.45995 22.6128L10.1745 22.7364L11.3313 23.8719L11.3958 23.6251L10.5581 22.8028L11.3959 22.9481ZM9.45857 21.0983L9.24276 21.5119L9.09863 21.3704L9.05495 21.153L9.45857 21.0983ZM8.65613 20.1919L8.78895 20.8525L8.65613 20.8705L8.52338 20.6992L8.65613 20.1919ZM7.8537 20.1718L8.25726 20.6925L8.21357 20.8594L8.06945 20.8344L7.8537 20.1718ZM7.52132 21.0498L7.95932 21.1256L8.03032 21.3436L7.95932 21.4797L7.52132 21.0498ZM7.8537 22.3116L8.06951 21.898L8.21363 22.0395L8.25732 22.2569L7.8537 22.3116ZM8.65613 23.218L8.52332 22.5574L8.65613 22.5394L8.78895 22.7107L8.65613 23.218ZM9.45857 23.2381L9.05501 22.7174L9.0987 22.5504L9.24276 22.5754L9.45857 23.2381ZM9.35295 22.2843L9.28195 22.0663L9.35295 21.9302L9.79095 22.3601L9.35295 22.2843Z" fill="#9EC6F3"/>
<path d="M9.18578 22.9212C9.56806 22.7583 9.64457 22.0785 9.35665 21.4028C9.06874 20.727 8.52544 20.3113 8.14316 20.4742C7.76088 20.6371 7.68437 21.3169 7.97228 21.9926C8.2602 22.6683 8.8035 23.0841 9.18578 22.9212Z" fill="#1E3C5D"/>
<path d="M8.903 22.1581C8.903 22.5074 8.69069 22.6679 8.42875 22.5166C8.16681 22.3655 7.9545 21.9597 7.9545 21.6105C7.9545 21.2613 8.16681 21.1008 8.42875 21.252C8.69069 21.4032 8.903 21.8089 8.903 22.1581Z" fill="#9EC6F3"/>
<path d="M8.65614 17.4086C6.87651 16.3811 5.43382 17.4718 5.43382 19.8446C5.43382 22.2174 6.87651 24.9738 8.65614 26.0013C10.4358 27.0288 11.8784 25.9381 11.8784 23.5653C11.8784 21.1925 10.4358 18.436 8.65614 17.4086ZM8.65614 25.1603C7.22489 24.334 6.06457 22.1171 6.06457 20.2088C6.06457 18.3004 7.22482 17.4233 8.65614 18.2496C10.0874 19.0759 11.2476 21.2928 11.2476 23.2012C11.2476 25.1095 10.0874 25.9866 8.65614 25.1603Z" fill="#1E3C5D"/>
<path d="M16.7313 23.1015C16.4393 23.1015 16.2026 22.8648 16.2026 22.5728V19.3121L9.3137 15.3348C9.06082 15.1889 8.9742 14.8655 9.1202 14.6126C9.2662 14.3597 9.58957 14.2731 9.84238 14.4191L16.7509 18.4078C17.0649 18.5891 17.26 18.927 17.26 19.2895V22.5728C17.26 22.8648 17.0233 23.1015 16.7313 23.1015Z" fill="#DFE7F0"/>
<path d="M18.4241 30.5166C18.4241 31.7636 17.6659 32.3368 16.7307 31.7968C15.7954 31.2568 15.0372 29.8082 15.0372 28.5611C15.0372 27.3141 15.7954 26.741 16.7307 27.281C17.6659 27.821 18.4241 29.2696 18.4241 30.5166Z" fill="url(#paint10_linear_1_5066)"/>
<path d="M16.9635 31.0524C17.389 30.8711 17.4741 30.1145 17.1537 29.3624C16.8332 28.6103 16.2285 28.1476 15.8031 28.3289C15.3776 28.5102 15.2924 29.2668 15.6129 30.0189C15.9334 30.771 16.538 31.2337 16.9635 31.0524Z" fill="#9EC6F3"/>
<path d="M17.0281 29.8302C17.0281 30.2017 16.8022 30.3725 16.5236 30.2116C16.245 30.0508 16.0191 29.6192 16.0191 29.2476C16.0191 28.8761 16.2449 28.7053 16.5236 28.8662C16.8022 29.0271 17.0281 29.4586 17.0281 29.8302Z" fill="#1E3C5D"/>
<path d="M13.3302 15.5335L8.88287 12.9658C8.792 12.9133 8.68 12.9133 8.58912 12.9658L7.06212 13.8475C7.02469 13.8691 7.00593 13.9068 7.0055 13.9446H7.00537V13.9454V13.9463L7.00531 14.6743V14.6764H7.00543C7.00612 14.714 7.02494 14.7513 7.06212 14.7727L11.5094 17.3403C11.6002 17.3928 11.7122 17.3928 11.8031 17.3403L13.3301 16.4587C13.368 16.4369 13.3869 16.3986 13.3869 16.3603V15.6318C13.387 15.5936 13.3681 15.5553 13.3302 15.5335Z" fill="url(#paint11_linear_1_5066)"/>
<path d="M7.06218 13.8475L8.58918 12.9658C8.68005 12.9133 8.79205 12.9133 8.88293 12.9658L13.3302 15.5335C13.4059 15.5771 13.4059 15.6865 13.3302 15.7302L11.8032 16.6118C11.7124 16.6643 11.6004 16.6643 11.5095 16.6118L7.06224 14.0442C6.98643 14.0005 6.98643 13.8911 7.06218 13.8475Z" fill="url(#paint12_linear_1_5066)"/>
<path d="M16.7318 27.0697C16.5498 27.0697 16.3726 26.9756 16.2744 26.8069C16.1276 26.5545 16.2131 26.2309 16.4654 26.084L24.6389 21.3264C24.8911 21.1796 25.2148 21.265 25.3618 21.5174C25.5086 21.7698 25.4231 22.0934 25.1708 22.2403L16.9973 26.9978C16.9136 27.0466 16.8221 27.0697 16.7318 27.0697Z" fill="#DFE7F0"/>
<path d="M26.677 25.7196V25.7186L26.6769 25.7187C26.6764 25.6724 26.6534 25.6263 26.6076 25.5998L24.7389 24.5209C24.6276 24.4566 24.4906 24.4566 24.3794 24.5209L21.6928 26.0679C21.6465 26.0947 21.6233 26.1415 21.6233 26.1883V26.7549C21.6233 26.8017 21.6465 26.8485 21.6928 26.8752L23.5615 27.9542C23.6728 28.0184 23.8098 28.0184 23.921 27.9542L26.6076 26.4071C26.6531 26.3809 26.6761 26.3352 26.6769 26.2893L26.6771 26.2892V26.2867V26.2867L26.677 25.7207C26.677 25.7204 26.677 25.7199 26.677 25.7196Z" fill="url(#paint13_linear_1_5066)"/>
<path d="M26.6074 25.5998L24.7386 24.5209C24.6274 24.4566 24.4904 24.4566 24.3791 24.5209L21.6926 26.0679C21.5999 26.1214 21.5999 26.2552 21.6926 26.3087L23.5613 27.3876C23.6726 27.4518 23.8096 27.4518 23.9208 27.3876L26.6074 25.8406C26.7001 25.7871 26.7001 25.6533 26.6074 25.5998Z" fill="url(#paint14_linear_1_5066)"/>
</g>
<defs>
<linearGradient id="paint0_linear_1_5066" x1="25.6356" y1="26.6263" x2="25.6356" y2="22.827" gradientUnits="userSpaceOnUse">
<stop stop-color="#054A86"/>
<stop offset="1" stop-color="#0C6ECA"/>
</linearGradient>
<linearGradient id="paint1_linear_1_5066" x1="19.2614" y1="21.224" x2="19.2614" y2="11.4352" gradientUnits="userSpaceOnUse">
<stop stop-color="#054A86"/>
<stop offset="1" stop-color="#0C6ECA"/>
</linearGradient>
<linearGradient id="paint2_linear_1_5066" x1="25.3535" y1="10.3275" x2="16.1231" y2="11.7424" gradientUnits="userSpaceOnUse">
<stop stop-color="#054A86"/>
<stop offset="0.40012" stop-color="#2D8CE2"/>
<stop offset="1" stop-color="#004C93"/>
</linearGradient>
<linearGradient id="paint3_linear_1_5066" x1="20.4234" y1="10.8294" x2="20.4234" y2="7.95459" gradientUnits="userSpaceOnUse">
<stop stop-color="#054A86"/>
<stop offset="1" stop-color="#0C6ECA"/>
</linearGradient>
<linearGradient id="paint4_linear_1_5066" x1="17.3151" y1="30.4921" x2="20.1784" y2="29.5878" gradientUnits="userSpaceOnUse">
<stop stop-color="#054A86"/>
<stop offset="1" stop-color="#0C6ECA"/>
</linearGradient>
<linearGradient id="paint5_linear_1_5066" x1="18.8995" y1="30.3909" x2="18.8995" y2="28.1039" gradientUnits="userSpaceOnUse">
<stop stop-color="#054A86"/>
<stop offset="1" stop-color="#0C6ECA"/>
</linearGradient>
<linearGradient id="paint6_linear_1_5066" x1="16.6615" y1="20.4118" x2="16.6615" y2="6.45254" gradientUnits="userSpaceOnUse">
<stop stop-color="#054A86"/>
<stop offset="1" stop-color="#0C6ECA"/>
</linearGradient>
<linearGradient id="paint7_linear_1_5066" x1="9.73457" y1="20.9891" x2="14.8615" y2="14.1538" gradientUnits="userSpaceOnUse">
<stop stop-color="#6AA4E7"/>
<stop offset="1" stop-color="#C2DFFF"/>
</linearGradient>
<linearGradient id="paint8_linear_1_5066" x1="10.1391" y1="25.3791" x2="13.9908" y2="9.37434" gradientUnits="userSpaceOnUse">
<stop stop-color="#3376C3"/>
<stop offset="1" stop-color="#B3D5FC"/>
</linearGradient>
<linearGradient id="paint9_linear_1_5066" x1="9.03419" y1="27.1604" x2="9.03419" y2="17.3715" gradientUnits="userSpaceOnUse">
<stop stop-color="#054A86"/>
<stop offset="1" stop-color="#0C6ECA"/>
</linearGradient>
<linearGradient id="paint10_linear_1_5066" x1="15.2803" y1="30.8994" x2="18.181" y2="28.8151" gradientUnits="userSpaceOnUse">
<stop stop-color="#054A86"/>
<stop offset="1" stop-color="#0C6ECA"/>
</linearGradient>
<linearGradient id="paint11_linear_1_5066" x1="15.1439" y1="16.7269" x2="5.00933" y2="16.9528" gradientUnits="userSpaceOnUse">
<stop stop-color="#054A86"/>
<stop offset="0.40012" stop-color="#2D8CE2"/>
<stop offset="1" stop-color="#004C93"/>
</linearGradient>
<linearGradient id="paint12_linear_1_5066" x1="10.1962" y1="16.4672" x2="10.1962" y2="13.5923" gradientUnits="userSpaceOnUse">
<stop stop-color="#054A86"/>
<stop offset="1" stop-color="#0C6ECA"/>
</linearGradient>
<linearGradient id="paint13_linear_1_5066" x1="22.5656" y1="27.3905" x2="25.4289" y2="26.4863" gradientUnits="userSpaceOnUse">
<stop stop-color="#054A86"/>
<stop offset="1" stop-color="#0C6ECA"/>
</linearGradient>
<linearGradient id="paint14_linear_1_5066" x1="24.15" y1="27.2894" x2="24.15" y2="25.0024" gradientUnits="userSpaceOnUse">
<stop stop-color="#054A86"/>
<stop offset="1" stop-color="#0C6ECA"/>
</linearGradient>
<clipPath id="clip0_1_5066">
<rect width="32" height="32" fill="white"/>
</clipPath>
</defs>
</svg>
