<svg width="16" height="16" viewBox="0 0 16 16" fill="none" xmlns="http://www.w3.org/2000/svg">
<path fill-rule="evenodd" clip-rule="evenodd" d="M3.0388 2.26355C2.83321 2.26355 2.63603 2.34522 2.49066 2.49059C2.34528 2.63597 2.26361 2.83315 2.26361 3.03874V8.62014C2.26361 8.82573 2.34528 9.0229 2.49066 9.16828C2.63603 9.31366 2.83321 9.39533 3.0388 9.39533H3.65896C3.91583 9.39533 4.12407 9.60357 4.12407 9.86045C4.12407 10.1173 3.91583 10.3256 3.65896 10.3256H3.0388C2.58649 10.3256 2.15271 10.1459 1.83288 9.82605C1.51305 9.50622 1.33337 9.07244 1.33337 8.62014V3.03874C1.33337 2.58643 1.51305 2.15265 1.83288 1.83282C2.15271 1.51299 2.58649 1.33331 3.0388 1.33331H8.6202C9.0725 1.33331 9.50629 1.51299 9.82611 1.83282C10.1459 2.15265 10.3256 2.58643 10.3256 3.03874V3.65889C10.3256 3.91577 10.1174 4.12401 9.86051 4.12401C9.60363 4.12401 9.39539 3.91577 9.39539 3.65889V3.03874C9.39539 2.83315 9.31372 2.63597 9.16834 2.49059C9.02296 2.34522 8.82579 2.26355 8.6202 2.26355H3.0388ZM7.37989 6.60463C6.95176 6.60463 6.60469 6.9517 6.60469 7.37983V12.9612C6.60469 13.3893 6.95176 13.7364 7.37989 13.7364H12.9613C13.3894 13.7364 13.7365 13.3893 13.7365 12.9612V7.37983C13.7365 6.9517 13.3894 6.60463 12.9613 6.60463H7.37989ZM5.67446 7.37983C5.67446 6.43794 6.438 5.6744 7.37989 5.6744H12.9613C13.9032 5.6744 14.6667 6.43794 14.6667 7.37983V12.9612C14.6667 13.9031 13.9032 14.6666 12.9613 14.6666H7.37989C6.438 14.6666 5.67446 13.9031 5.67446 12.9612V7.37983Z" fill="#005DAC"/>
</svg>
