<svg width="16" height="16" viewBox="0 0 16 16" fill="none" xmlns="http://www.w3.org/2000/svg">
<path fill-rule="evenodd" clip-rule="evenodd" d="M9.59445 6.37218C9.39919 6.17692 9.08261 6.17692 8.88734 6.37218L6.37219 8.88733C6.17693 9.08259 6.17693 9.39918 6.37219 9.59444C6.56746 9.7897 6.88404 9.7897 7.0793 9.59444L9.59445 7.07929C9.78971 6.88403 9.78971 6.56744 9.59445 6.37218Z" fill="white"/>
<path fill-rule="evenodd" clip-rule="evenodd" d="M6.294 1.93697C7.24981 1.0608 8.71684 1.0608 9.67265 1.93697L10.187 2.40843C10.4046 2.60796 10.6763 2.7388 10.968 2.78458L11.6573 2.89273C12.9383 3.09373 13.8529 4.2407 13.7639 5.53426L13.7159 6.23032C13.6956 6.5249 13.7627 6.81891 13.9088 7.07551L14.254 7.68183C14.8955 8.80864 14.5691 10.2389 13.5022 10.9758L12.9281 11.3723C12.6852 11.5401 12.4971 11.7759 12.3876 12.0501L12.1288 12.698C11.6478 13.9021 10.326 14.5386 9.08472 14.1639L8.41679 13.9623C8.13411 13.877 7.83254 13.877 7.54986 13.9623L6.88193 14.1639C5.64062 14.5386 4.31886 13.9021 3.83787 12.698L3.57905 12.0501C3.46951 11.7759 3.28148 11.5401 3.03853 11.3723L2.46445 10.9758C1.39756 10.2389 1.07111 8.80864 1.71262 7.68184L2.05782 7.07551C2.20391 6.81891 2.27101 6.5249 2.25073 6.23032L2.20279 5.53426C2.11371 4.2407 3.02839 3.09373 4.30935 2.89273L4.99862 2.78458C5.29032 2.7388 5.56203 2.60796 5.77969 2.40843L6.294 1.93697ZM8.99692 2.67412C8.42344 2.14842 7.54321 2.14842 6.96973 2.67412L6.45542 3.14558C6.09265 3.47812 5.63981 3.6962 5.15363 3.77249L4.46436 3.88064C3.69579 4.00124 3.14698 4.68943 3.20043 5.46556L3.24836 6.16162C3.28217 6.65258 3.17033 7.1426 2.92685 7.57027L2.58166 8.17659C2.19675 8.85268 2.39262 9.71083 3.03275 10.153L3.60683 10.5495C4.01176 10.8291 4.32514 11.2221 4.5077 11.6791L4.76652 12.327C5.05511 13.0495 5.84817 13.4314 6.59295 13.2066L7.26089 13.005C7.73202 12.8628 8.23464 12.8628 8.70576 13.005L9.3737 13.2066C10.1185 13.4314 10.9115 13.0495 11.2001 12.327L11.459 11.6791C11.6415 11.2221 11.9549 10.8291 12.3598 10.5495L12.9339 10.153C13.574 9.71083 13.7699 8.85268 13.385 8.17659L13.0398 7.57026C12.7963 7.14259 12.6845 6.65258 12.7183 6.16162L12.7662 5.46556C12.8197 4.68943 12.2709 4.00124 11.5023 3.88064L10.813 3.77249C10.3268 3.6962 9.874 3.47812 9.51123 3.14558L8.99692 2.67412Z" fill="white"/>
<path fill-rule="evenodd" clip-rule="evenodd" d="M8.92651 9.74098C9.02901 9.74098 9.11211 9.65788 9.11211 9.55538C9.11211 9.45287 9.02901 9.36977 8.92651 9.36977C8.824 9.36977 8.7409 9.45287 8.7409 9.55538C8.7409 9.65788 8.824 9.74098 8.92651 9.74098ZM8.11211 9.55538C8.11211 9.1056 8.47673 8.74098 8.92651 8.74098C9.37628 8.74098 9.7409 9.1056 9.7409 9.55538C9.7409 10.0052 9.37628 10.3698 8.92651 10.3698C8.47673 10.3698 8.11211 10.0052 8.11211 9.55538Z" fill="white"/>
<path fill-rule="evenodd" clip-rule="evenodd" d="M7.04015 6.59698C7.14265 6.59698 7.22575 6.51389 7.22575 6.41138C7.22575 6.30887 7.14265 6.22577 7.04015 6.22577C6.93764 6.22577 6.85454 6.30887 6.85454 6.41138C6.85454 6.51389 6.93764 6.59698 7.04015 6.59698ZM6.22575 6.41138C6.22575 5.9616 6.59037 5.59698 7.04015 5.59698C7.48992 5.59698 7.85454 5.9616 7.85454 6.41138C7.85454 6.86116 7.48992 7.22577 7.04015 7.22577C6.59037 7.22577 6.22575 6.86116 6.22575 6.41138Z" fill="white"/>
</svg>
