<svg width="20" height="20" viewBox="0 0 20 20" fill="none" xmlns="http://www.w3.org/2000/svg">
<path fill-rule="evenodd" clip-rule="evenodd" d="M9.99996 1.66663C10.354 1.66663 10.641 1.95362 10.641 2.30765V11.0165L13.8202 7.83728C14.0705 7.58695 14.4764 7.58695 14.7267 7.83728C14.9771 8.08762 14.9771 8.4935 14.7267 8.74383L10.4532 13.0173C10.2029 13.2677 9.79702 13.2677 9.54669 13.0173L5.27318 8.74383C5.02285 8.4935 5.02285 8.08762 5.27318 7.83728C5.52352 7.58695 5.92939 7.58695 6.17973 7.83728L9.35893 11.0165V2.30765C9.35893 1.95362 9.64593 1.66663 9.99996 1.66663ZM2.30765 11.923C2.66168 11.923 2.94868 12.21 2.94868 12.5641V15.9829C2.94868 16.2662 3.06124 16.538 3.2616 16.7383C3.46196 16.9387 3.7337 17.0512 4.01705 17.0512H15.9829C16.2662 17.0512 16.538 16.9387 16.7383 16.7383C16.9387 16.538 17.0512 16.2662 17.0512 15.9829V12.5641C17.0512 12.21 17.3382 11.923 17.6923 11.923C18.0463 11.923 18.3333 12.21 18.3333 12.5641V15.9829C18.3333 16.6062 18.0857 17.2041 17.6449 17.6449C17.2041 18.0857 16.6062 18.3333 15.9829 18.3333H4.01705C3.39368 18.3333 2.79584 18.0857 2.35505 17.6449C1.91426 17.2041 1.66663 16.6062 1.66663 15.9829V12.5641C1.66663 12.21 1.95362 11.923 2.30765 11.923Z" fill="#005DAC"/>
</svg>
