<svg width="18" height="18" viewBox="0 0 18 18" fill="none" xmlns="http://www.w3.org/2000/svg">
<path fill-rule="evenodd" clip-rule="evenodd" d="M15.12 1.82294C14.8396 1.82294 14.5707 1.93431 14.3725 2.13255L7.1627 9.34234L6.66439 11.3356L8.65763 10.8373L15.8674 3.62748C16.0657 3.42924 16.177 3.16037 16.177 2.88001C16.177 2.59966 16.0657 2.33079 15.8674 2.13255C15.6692 1.93431 15.4003 1.82294 15.12 1.82294ZM13.5549 1.31494C13.97 0.899862 14.5329 0.666672 15.12 0.666672C15.707 0.666672 16.2699 0.899862 16.685 1.31494C17.1001 1.73003 17.3333 2.293 17.3333 2.88001C17.3333 3.46703 17.1001 4.03 16.685 4.44508L9.362 11.7681C9.28791 11.8422 9.19507 11.8948 9.09342 11.9202L6.01004 12.691C5.81303 12.7403 5.60462 12.6825 5.46102 12.539C5.31743 12.3954 5.2597 12.1869 5.30895 11.9899L6.0798 8.90655C6.10521 8.8049 6.15777 8.71206 6.23187 8.63797L13.5549 1.31494ZM1.28751 2.92275C1.68505 2.52521 2.22424 2.30187 2.78645 2.30187H8.18236C8.50165 2.30187 8.76049 2.56071 8.76049 2.88C8.76049 3.1993 8.50165 3.45814 8.18236 3.45814H2.78645C2.5309 3.45814 2.28581 3.55965 2.10511 3.74036C1.92441 3.92106 1.82289 4.16614 1.82289 4.42169V15.2135C1.82289 15.4691 1.92441 15.7142 2.10511 15.8949C2.28581 16.0756 2.5309 16.1771 2.78645 16.1771H13.5783C13.8338 16.1771 14.0789 16.0756 14.2596 15.8949C14.4403 15.7142 14.5418 15.4691 14.5418 15.2135V9.81761C14.5418 9.49831 14.8007 9.23947 15.12 9.23947C15.4392 9.23947 15.6981 9.49831 15.6981 9.81761V15.2135C15.6981 15.7757 15.4747 16.3149 15.0772 16.7125C14.6797 17.11 14.1405 17.3333 13.5783 17.3333H2.78645C2.22424 17.3333 1.68505 17.11 1.28751 16.7125C0.889964 16.3149 0.666626 15.7757 0.666626 15.2135V4.42169C0.666626 3.85948 0.889964 3.3203 1.28751 2.92275Z" fill="#005DAC"/>
</svg>
