<svg width="16" height="16" viewBox="0 0 16 16" fill="none" xmlns="http://www.w3.org/2000/svg">
<g clip-path="url(#clip0_1_5122)">
<path d="M8 16C12.2284 16 15.6562 12.4183 15.6562 8C15.6562 3.58172 12.2284 0 8 0C3.77157 0 0.34375 3.58172 0.34375 8C0.34375 12.4183 3.77157 16 8 16Z" fill="#973C15"/>
<path d="M8 15.1562C12.1853 15.1562 15.5781 11.7634 15.5781 7.57812C15.5781 3.39284 12.1853 0 8 0C3.81472 0 0.421875 3.39284 0.421875 7.57812C0.421875 11.7634 3.81472 15.1562 8 15.1562Z" fill="#FDD835"/>
<path opacity="0.5" d="M11.025 0.628113L1.05001 10.6C0.715631 9.83436 0.506256 9.00311 0.443756 8.13124L8.55313 0.0187378C9.42501 0.0843628 10.2563 0.293738 11.025 0.628113Z" fill="white"/>
<path opacity="0.5" d="M14.6031 3.85937L4.28125 14.1812C3.6375 13.8187 3.05625 13.3656 2.54688 12.8375L13.2625 2.125C13.7875 2.63125 14.2406 3.21562 14.6031 3.85937Z" fill="white"/>
<path opacity="0.5" d="M12.9531 1.84062L2.26564 12.5281C2.10001 12.3344 1.94064 12.1312 1.79376 11.9219L12.3469 1.36874C12.5563 1.51562 12.7594 1.67499 12.9531 1.84062Z" fill="white"/>
<path opacity="0.5" d="M15.3406 5.68751L6.10939 14.9188C5.83126 14.8469 5.55939 14.7594 5.29376 14.6594L15.0813 4.87189C15.1813 5.13751 15.2688 5.40939 15.3406 5.68751Z" fill="white"/>
<path opacity="0.5" d="M15.5781 7.57812C15.5781 7.63125 15.5781 7.68125 15.575 7.73438C15.4937 3.62187 12.1344 0.3125 8 0.3125C3.86562 0.3125 0.50625 3.62187 0.425 7.73438C0.425 7.68125 0.421875 7.63125 0.421875 7.57812C0.421875 3.39375 3.81563 0 8 0C12.1844 0 15.5781 3.39375 15.5781 7.57812Z" fill="white"/>
<path opacity="0.5" d="M14.1562 7.90625C14.1562 11.1844 11.4969 13.8438 8.21875 13.8438C6.37812 13.8438 4.73125 13.0031 3.64062 11.6875C4.725 12.8594 6.275 13.5938 8 13.5938C11.2781 13.5938 13.9375 10.9344 13.9375 7.65625C13.9375 6.21875 13.4281 4.90313 12.5781 3.875C13.5562 4.93438 14.1562 6.35 14.1562 7.90625Z" fill="white"/>
<path d="M8 13.5938C11.2792 13.5938 13.9375 10.9354 13.9375 7.65625C13.9375 4.37706 11.2792 1.71875 8 1.71875C4.72081 1.71875 2.0625 4.37706 2.0625 7.65625C2.0625 10.9354 4.72081 13.5938 8 13.5938Z" fill="#F39E09"/>
<path d="M12.5 3.78125C11.4594 2.88437 10.1062 2.34375 8.625 2.34375C5.34687 2.34375 2.6875 5.00312 2.6875 8.28125C2.6875 9.7625 3.22812 11.1156 4.125 12.1562C2.8625 11.0656 2.0625 9.45625 2.0625 7.65625C2.0625 4.37812 4.72187 1.71875 8 1.71875C9.79688 1.71875 11.4094 2.51875 12.5 3.78125Z" fill="#E88102"/>
<path d="M10.9156 4.125V3.65625L10.3719 4.125H5.46251L5.09063 5.225V5.69375H6.65001C7.14376 5.70937 7.47501 5.9 7.64688 6.26875H5.40313L5.08438 7.02187V7.49062H7.69063C7.52813 7.99687 7.17188 8.25625 6.61876 8.26562H5.25001L5.25626 9.38437L7.91876 12.5625H10.0969V12.0938L9.70938 12L7.74376 9.59062C8.33751 9.40937 8.79688 9.15 9.11876 8.80937C9.44063 8.46875 9.64688 8.03125 9.73751 7.49375H10.5906L10.9094 6.27187V5.80312L10.4594 6.27187H9.75001C9.70001 5.93125 9.59063 5.62187 9.41876 5.35H10.5938L10.9156 4.125Z" fill="#DB6704"/>
<path d="M10.5969 4.87813H9.42189C9.59064 5.15 9.70314 5.45938 9.75314 5.8H10.9125L10.5938 7.02187H9.74064C9.65001 7.55937 9.44689 7.99687 9.12189 8.3375C8.80001 8.67812 8.34064 8.9375 7.74689 9.11875L10.1 12.0063V12.0938H7.92189L5.26251 8.91875L5.25626 7.8H6.62501C7.17814 7.7875 7.53439 7.53125 7.69689 7.02187H5.09064L5.40939 5.8H7.65314C7.48439 5.43438 7.15001 5.24062 6.65626 5.225H5.09689L5.46876 3.65625H10.9219L10.5969 4.87813Z" fill="#FDD835"/>
<path opacity="0.5" d="M5.40314 5.79999H5.85001L5.24689 6.40311L5.40314 5.79999Z" fill="white"/>
<path opacity="0.5" d="M7.99376 3.65625L6.42501 5.225H5.09064L5.46251 3.65625H7.99376Z" fill="white"/>
<path opacity="0.5" d="M10.5969 4.87812H10.5063L10.6281 4.75937L10.5969 4.87812Z" fill="white"/>
<path opacity="0.5" d="M10.9094 5.8L10.5906 7.02187H9.73751C9.65001 7.55937 9.44376 7.99687 9.11876 8.3375C8.79689 8.67812 8.33751 8.9375 7.74376 9.11875L8.46251 9.99687L7.21251 11.2469L5.80939 9.57187L9.72501 5.65625C9.73439 5.70312 9.74376 5.75 9.75001 5.79688L10.9094 5.8Z" fill="white"/>
<path opacity="0.5" d="M6.62188 7.8C6.79063 7.79688 6.94376 7.76875 7.07501 7.71875L5.54063 9.25313L5.25938 8.91875L5.25626 8.45938L5.91563 7.8H6.62188Z" fill="white"/>
<path opacity="0.5" d="M10.9156 3.65625L10.8375 3.95625L9.91563 4.87813H9.42188C9.48751 4.98125 9.54376 5.09063 9.59063 5.20625L7.65001 7.14687C7.66563 7.10938 7.68126 7.06563 7.69376 7.025H6.69376L10.0594 3.65625H10.9156Z" fill="white"/>
<path opacity="0.5" d="M9.6125 11.4125L8.93437 12.0938H7.91875L7.89062 12.0594L9.13125 10.8188L9.6125 11.4125Z" fill="white"/>
<path opacity="0.25" d="M12.9531 4.37813C9.10938 5.72813 6.02188 8.69375 4.50938 12.4594C4.37813 12.3625 4.25 12.2625 4.125 12.1531C3.22812 11.1125 2.6875 9.75938 2.6875 8.28125C2.6875 5.00312 5.34687 2.34375 8.625 2.34375C10.1062 2.34375 11.4594 2.88437 12.4969 3.78125C12.6625 3.97187 12.8125 4.17188 12.9531 4.37813Z" fill="white"/>
</g>
<defs>
<clipPath id="clip0_1_5122">
<rect width="16" height="16" fill="white"/>
</clipPath>
</defs>
</svg>
