<svg width="24" height="24" viewBox="0 0 24 24" fill="none" xmlns="http://www.w3.org/2000/svg">
<path fill-rule="evenodd" clip-rule="evenodd" d="M19.1111 2C19.602 2 20 2.38376 20 2.85714V21.1429C20 21.6162 19.602 22 19.1111 22C18.6202 22 18.2222 21.6162 18.2222 21.1429V2.85714C18.2222 2.38376 18.6202 2 19.1111 2ZM12 8.85714C12.4909 8.85714 12.8889 9.2409 12.8889 9.71429V21.1429C12.8889 21.6162 12.4909 22 12 22C11.5091 22 11.1111 21.6162 11.1111 21.1429V9.71429C11.1111 9.2409 11.5091 8.85714 12 8.85714ZM4.88889 15.7143C5.37981 15.7143 5.77778 16.098 5.77778 16.5714V21.1429C5.77778 21.6162 5.37981 22 4.88889 22C4.39797 22 4 21.6162 4 21.1429V16.5714C4 16.098 4.39797 15.7143 4.88889 15.7143Z" fill="#F58220"/>
</svg>
