<svg width="18" height="18" viewBox="0 0 18 18" fill="none" xmlns="http://www.w3.org/2000/svg">
<path fill-rule="evenodd" clip-rule="evenodd" d="M8.74 0.728036C8.90368 0.646197 9.09633 0.646197 9.26001 0.728036L17.0118 4.60401C17.2088 4.70249 17.3332 4.9038 17.3332 5.12402C17.3332 5.34424 17.2088 5.54555 17.0118 5.64404L9.26001 9.52001C9.09633 9.60185 8.90368 9.60185 8.74 9.52001L0.988182 5.64404C0.791217 5.54555 0.666799 5.34424 0.666799 5.12402C0.666799 4.9038 0.791217 4.70249 0.988182 4.60401L8.74 0.728036ZM2.54821 5.12402L9.00001 8.34997L15.4518 5.12402L9.00001 1.89807L2.54821 5.12402ZM0.728178 8.73998C0.871774 8.45279 1.221 8.33638 1.50819 8.47997L9.00001 12.2259L16.4918 8.47997C16.779 8.33638 17.1282 8.45279 17.2718 8.73998C17.4154 9.02718 17.299 9.37641 17.0118 9.52001L9.26001 13.396C9.09633 13.4778 8.90368 13.4778 8.74 13.396L0.988182 9.52001C0.700989 9.37641 0.584581 9.02718 0.728178 8.73998ZM0.728178 12.616C0.871774 12.3288 1.221 12.2123 1.50819 12.3559L9.00001 16.1019L16.4918 12.3559C16.779 12.2123 17.1282 12.3288 17.2718 12.616C17.4154 12.9031 17.299 13.2524 17.0118 13.396L9.26001 17.2719C9.09633 17.3538 8.90368 17.3538 8.74 17.2719L0.988182 13.396C0.700989 13.2524 0.584581 12.9031 0.728178 12.616Z" fill="#0A3F70"/>
</svg>
