<svg width="20" height="20" viewBox="0 0 20 20" fill="none" xmlns="http://www.w3.org/2000/svg">
<path d="M3.98939 6.25C5.24158 4.24731 7.46584 2.91666 9.9999 2.91666C13.6528 2.91666 16.6606 5.68227 17.0423 9.23346C17.0792 9.57667 17.3873 9.82498 17.7305 9.78808C18.0737 9.75119 18.322 9.44306 18.2851 9.09986C17.8359 4.92054 14.2983 1.66666 9.9999 1.66666C7.00847 1.66666 4.3862 3.2429 2.91663 5.6081L2.91663 2.5C2.91663 2.15482 2.6368 1.875 2.29163 1.875C1.94645 1.875 1.66663 2.15482 1.66663 2.5L1.66663 6.875C1.66663 7.22018 1.94645 7.5 2.29163 7.5H6.66663C7.0118 7.5 7.29163 7.22018 7.29163 6.875C7.29163 6.52982 7.0118 6.25 6.66663 6.25L3.98939 6.25Z" fill="#005DAC"/>
<path d="M16.0105 14.1641C14.7583 16.1668 12.5341 17.4974 10 17.4974C6.348 17.4974 3.34077 14.7331 2.9579 11.1831C2.92088 10.8399 2.61267 10.5917 2.26948 10.6287C1.92629 10.6657 1.67809 10.9739 1.7151 11.3171C2.1657 15.495 5.70263 18.7474 10 18.7474C12.9914 18.7474 15.6137 17.1712 17.0833 14.806V17.9141C17.0833 18.2592 17.3631 18.5391 17.7083 18.5391C18.0535 18.5391 18.3333 18.2592 18.3333 17.9141V13.5391C18.3333 13.1939 18.0535 12.9141 17.7083 12.9141L13.3333 12.9141C12.9881 12.9141 12.7083 13.1939 12.7083 13.5391C12.7083 13.8842 12.9881 14.1641 13.3333 14.1641L16.0105 14.1641Z" fill="#005DAC"/>
</svg>
