<svg width="18" height="16" viewBox="0 0 18 16" fill="none" xmlns="http://www.w3.org/2000/svg">
<path fill-rule="evenodd" clip-rule="evenodd" d="M9.00008 0.289495C9.24407 0.289495 9.46691 0.423151 9.57489 0.634267L11.3724 4.14856L15.3918 4.7121C15.6332 4.74596 15.8338 4.90914 15.9092 5.13305C15.9846 5.35695 15.9218 5.60274 15.747 5.76707L12.8386 8.50257L13.5252 12.3652C13.5664 12.5972 13.4676 12.8317 13.2702 12.9701C13.0728 13.1085 12.8111 13.1267 12.5951 13.0172L9.00008 11.1935L5.40505 13.0172C5.18908 13.1267 4.92739 13.1085 4.72999 12.9701C4.5326 12.8317 4.43374 12.5972 4.47499 12.3652L5.16158 8.50257L2.25313 5.76707C2.07841 5.60274 2.01553 5.35695 2.09093 5.13305C2.16633 4.90914 2.36693 4.74596 2.60839 4.7121L6.62775 4.14856L8.42527 0.634267C8.53325 0.423151 8.75609 0.289495 9.00008 0.289495ZM9.00008 2.30552L7.62823 4.9876C7.53486 5.17015 7.35438 5.29667 7.1456 5.32594L4.07805 5.75603L6.29775 7.84374C6.44883 7.98583 6.51777 8.19056 6.4821 8.39119L5.9581 11.3391L8.7018 9.94728C8.88854 9.85255 9.11163 9.85255 9.29837 9.94728L12.0421 11.3391L11.5181 8.39119C11.4824 8.19056 11.5513 7.98583 11.7024 7.84374L13.9221 5.75603L10.8546 5.32594C10.6458 5.29667 10.4653 5.17015 10.3719 4.9876L9.00008 2.30552Z" fill="#054C87"/>
<path d="M2.56412 0.264482C2.31379 0.506021 2.31379 0.897633 2.56412 1.13917L3.41879 1.96384C3.66912 2.20538 4.07498 2.20538 4.32531 1.96384C4.57564 1.7223 4.57564 1.33069 4.32531 1.08915L3.47064 0.264482C3.22031 0.0229435 2.81445 0.0229435 2.56412 0.264482Z" fill="#054C87"/>
<path d="M15.436 0.264482C15.6864 0.506021 15.6864 0.897633 15.436 1.13917L14.5814 1.96384C14.331 2.20538 13.9252 2.20538 13.6749 1.96384C13.4245 1.7223 13.4245 1.33069 13.6749 1.08915L14.5295 0.264482C14.7799 0.0229435 15.1857 0.0229435 15.436 0.264482Z" fill="#054C87"/>
<path d="M9.64109 15.2982C9.64109 15.6397 9.3541 15.9167 9.00008 15.9167C8.64607 15.9167 8.35908 15.6397 8.35908 15.2982V14.3749C8.35908 14.0333 8.64607 13.7564 9.00008 13.7564C9.3541 13.7564 9.64109 14.0333 9.64109 14.3749V15.2982Z" fill="#054C87"/>
<path d="M2.7359 9.61023C2.57758 9.30471 2.19254 9.18087 1.8759 9.33363L1.02123 9.74597C0.704585 9.89873 0.57624 10.2702 0.734561 10.5758C0.892882 10.8813 1.27792 11.0051 1.59456 10.8524L2.44923 10.44C2.76587 10.2873 2.89422 9.91576 2.7359 9.61023Z" fill="#054C87"/>
<path d="M16.1243 9.33363C15.8076 9.18087 15.4226 9.30471 15.2643 9.61023C15.1059 9.91576 15.2343 10.2873 15.5509 10.44L16.4056 10.8524C16.7222 11.0051 17.1073 10.8813 17.2656 10.5758C17.4239 10.2702 17.2956 9.89873 16.9789 9.74597L16.1243 9.33363Z" fill="#054C87"/>
</svg>
