<svg width="17" height="16" viewBox="0 0 17 16" fill="none" xmlns="http://www.w3.org/2000/svg">
<path fill-rule="evenodd" clip-rule="evenodd" d="M9.23369 1.91465C9.57435 1.76955 9.93998 1.69467 10.3096 1.69467C10.6792 1.69467 11.0448 1.76955 11.3855 1.91465C11.726 2.0597 12.0345 2.27191 12.2938 2.53847C12.5531 2.80495 12.7581 3.1206 12.8978 3.46705C13.0374 3.81347 13.1091 4.18433 13.1091 4.55854C13.1091 4.93275 13.0374 5.30361 12.8978 5.65003C12.7581 5.99648 12.5531 6.31213 12.2938 6.57861L8.59907 10.3766C8.50494 10.4734 8.37567 10.528 8.24067 10.528C8.10567 10.528 7.97641 10.4734 7.88228 10.3766L4.18751 6.57853C3.66412 6.0405 3.37245 5.31364 3.37245 4.55854C3.37245 3.80344 3.66412 3.07658 4.18751 2.53855C4.71135 2.00005 5.42482 1.6949 6.17177 1.6949C6.91872 1.6949 7.63219 2.00005 8.15603 2.53855L8.24067 2.62556L8.32523 2.53864C8.58447 2.27204 8.89309 2.05972 9.23369 1.91465ZM10.3096 2.69467C10.0752 2.69467 9.84284 2.74212 9.62556 2.83467C9.40824 2.92723 9.20989 3.06329 9.04219 3.23575L8.59907 3.69127C8.50494 3.78804 8.37567 3.84263 8.24067 3.84263C8.10567 3.84263 7.97641 3.78804 7.88228 3.69127L7.43924 3.23584C7.10067 2.8878 6.64446 2.6949 6.17177 2.6949C5.69908 2.6949 5.24287 2.8878 4.9043 3.23584C4.56527 3.58435 4.37245 4.05989 4.37245 4.55854C4.37245 5.05719 4.56527 5.53273 4.9043 5.88124L8.24067 9.31094L11.577 5.88124C11.7449 5.70883 11.8788 5.50329 11.9703 5.27618C12.0618 5.04906 12.1091 4.80516 12.1091 4.55854C12.1091 4.31192 12.0618 4.06802 11.9703 3.8409C11.8788 3.61379 11.7449 3.40834 11.5771 3.23592C11.4094 3.06345 11.2109 2.92723 10.9936 2.83467C10.7763 2.74212 10.5439 2.69467 10.3096 2.69467Z" fill="white"/>
<path fill-rule="evenodd" clip-rule="evenodd" d="M5.6122 4.87816C5.98413 4.24643 6.88688 4.21637 7.30001 4.82195L8.29207 6.27613L9.12892 4.96018C9.4315 4.48439 10.1282 4.49084 10.4219 4.97214H14.4853C14.7062 4.97214 14.8853 5.15123 14.8853 5.37214C14.8853 5.59305 14.7062 5.77214 14.4853 5.77214H10.3604C10.1197 5.77214 9.89639 5.6468 9.77101 5.44134L9.13003 6.44926C8.7446 7.05534 7.86491 7.06954 7.46013 6.4762L6.46151 5.01241L6.30427 5.27949C6.12455 5.58474 5.79675 5.77214 5.44253 5.77214H2.01307C1.79216 5.77214 1.61307 5.59305 1.61307 5.37214C1.61307 5.15123 1.79216 4.97214 2.01307 4.97214H5.55686L5.6122 4.87816Z" fill="white"/>
<path fill-rule="evenodd" clip-rule="evenodd" d="M2.80253 7.80927C2.63086 7.80747 2.43162 7.96767 2.43003 8.24322L2.40954 11.7958L3.98461 13.7413L6.00505 13.7411L5.01639 10.814C5.01209 10.8013 5.00838 10.7884 5.00528 10.7753C4.98202 10.6771 4.92489 10.6162 4.86823 10.5872C4.81399 10.5595 4.75507 10.5571 4.69678 10.586C4.69484 10.5876 4.67678 10.602 4.6501 10.6495C4.61747 10.7075 4.58803 10.7868 4.56419 10.8783C4.54094 10.9676 4.52655 11.0546 4.51807 11.1204C4.51389 11.1528 4.5113 11.1788 4.5098 11.1959L4.50834 11.2143L4.50816 11.2168C4.49585 11.438 4.31858 11.6145 4.09725 11.6257C3.87585 11.6368 3.68175 11.4791 3.64739 11.2601L3.16624 8.19364L3.16451 8.18152C3.13386 7.94221 2.95794 7.81089 2.80253 7.80927ZM4.29814 9.8164L4.30146 9.8147C4.95444 9.48241 5.67261 9.89 5.84321 10.5536L7.01933 14.0357C7.064 14.168 7.04222 14.3136 6.96083 14.427C6.87945 14.5405 6.74841 14.6077 6.60882 14.6077L3.77795 14.608C3.64718 14.608 3.5234 14.549 3.44111 14.4473L1.63853 12.2208C1.57553 12.143 1.54142 12.0458 1.542 11.9456L1.56338 8.23822C1.56735 7.55024 2.09461 6.93515 2.8116 6.94265C3.4492 6.94932 3.94183 7.45289 4.02329 8.06476L4.29814 9.8164ZM13.6651 6.94265C14.3821 6.93515 14.9093 7.55024 14.9133 8.23822L14.9347 11.9456C14.9352 12.0458 14.9011 12.143 14.8381 12.2208L13.0355 14.4473C12.9533 14.549 12.8295 14.608 12.6987 14.608L9.86784 14.6077C9.72825 14.6077 9.59721 14.5405 9.51583 14.427C9.43444 14.3136 9.41267 14.168 9.45733 14.0357L10.6335 10.5536C10.8041 9.89 11.5222 9.48241 12.1752 9.8147L12.1785 9.8164L12.4534 8.06476C12.5348 7.45289 13.0275 6.94932 13.6651 6.94265ZM11.9685 11.217L11.9683 11.2143L11.9669 11.1959C11.9654 11.1788 11.9628 11.1528 11.9586 11.1204C11.9501 11.0546 11.9357 10.9676 11.9125 10.8783C11.8886 10.7868 11.8592 10.7075 11.8266 10.6495C11.7999 10.602 11.7818 10.5876 11.7799 10.586C11.7216 10.5571 11.6627 10.5595 11.6084 10.5872C11.5518 10.6162 11.4946 10.6771 11.4714 10.7753C11.4683 10.7884 11.4646 10.8013 11.4603 10.814L10.4716 13.7411L12.492 13.7413L14.0671 11.7958L14.0466 8.24322C14.045 7.96767 13.8458 7.80747 13.6741 7.80927C13.5187 7.81089 13.3428 7.94221 13.3121 8.18152L13.3104 8.19364L12.8293 11.2601C12.7949 11.4791 12.6008 11.6368 12.3794 11.6257C12.1581 11.6145 11.9809 11.4382 11.9685 11.217Z" fill="white"/>
</svg>
