<svg width="16" height="16" viewBox="0 0 16 16" fill="none" xmlns="http://www.w3.org/2000/svg">
<path fill-rule="evenodd" clip-rule="evenodd" d="M7.11758 1.47819C7.70377 1.38834 8.30025 1.38841 8.88642 1.4784C9.54786 1.57993 10.1829 1.83405 11.292 2.27793L14.0191 3.36913C14.2089 3.44507 14.3333 3.62891 14.3333 3.83334V5.63417C14.3333 5.93979 14.3333 6.10589 14.3282 6.25991C14.2124 9.70213 12.177 12.789 9.05863 14.2513C8.91909 14.3167 8.76641 14.3822 8.48547 14.5026L8.4718 14.5084C8.45991 14.5135 8.44726 14.519 8.43442 14.5241C8.15561 14.636 7.8444 14.636 7.56559 14.5241C7.55276 14.519 7.54013 14.5135 7.52825 14.5084L7.51449 14.5025C7.23358 14.3822 7.08091 14.3167 6.94138 14.2513C3.82306 12.789 1.78758 9.70213 1.67185 6.25991C1.66667 6.1059 1.66667 5.93981 1.66667 5.63424V3.83334C1.66667 3.62887 1.79117 3.445 1.98103 3.36908L4.64702 2.30306C4.66879 2.29435 4.69037 2.28572 4.71179 2.27716C5.82106 1.83354 6.45612 1.57957 7.11758 1.47819ZM8.73469 2.46682C8.249 2.39226 7.75478 2.3922 7.26908 2.46665C6.73449 2.54858 6.21045 2.75488 5.0183 3.23158L2.66667 4.1719V5.6224C2.66667 5.94277 2.66674 6.09115 2.67128 6.2263C2.77439 9.29301 4.58782 12.0431 7.36596 13.3459C7.4884 13.4033 7.62475 13.4618 7.91921 13.588L7.93475 13.5947C7.93677 13.5955 7.93793 13.596 7.93793 13.596C7.97776 13.612 8.02223 13.612 8.06206 13.596C8.06206 13.596 8.06232 13.5959 8.06526 13.5947L8.0808 13.588C8.37526 13.4618 8.51161 13.4033 8.63405 13.3459C11.4122 12.0431 13.2256 9.29301 13.3287 6.2263C13.3333 6.09115 13.3333 5.94277 13.3333 5.6224V4.17182L10.9853 3.23228C9.79325 2.7553 9.26926 2.54888 8.73469 2.46682Z" fill="white"/>
<path fill-rule="evenodd" clip-rule="evenodd" d="M11.4256 5.49021C11.6151 5.69105 11.606 6.0075 11.4051 6.19702L7.34318 10.0304C7.14605 10.2164 6.83659 10.2115 6.64546 10.0193L5.14546 8.51087C4.95075 8.31507 4.95163 7.99849 5.14744 7.80377C5.34325 7.60905 5.65983 7.60994 5.85455 7.80575L7.01108 8.96877L10.7188 5.46975C10.9196 5.28022 11.2361 5.28938 11.4256 5.49021Z" fill="white"/>
</svg>
